<svg xmlns="http://www.w3.org/2000/svg" viewBox="0 0 285.24 285.24"><defs><style>.ee8b903f-f430-4649-a77b-cad8baac71e0{fill:#403f35;}.bd4bc323-cbb5-4fa7-818c-8d2a4f2c57b5{fill:#bf8136;}.b2b8c593-299b-4fa4-bf9c-b21360f0604e{fill:#a67232;}.b7436f95-2b4b-4c79-a0cc-0bc5a7eff36d{fill:#3e5c15;}.ed8a2032-d5cf-4221-a74c-e06745367576{fill:#84c22d;}.f9157cdf-c4ce-43b1-8aa5-dd8cec4174ca{fill:#95db33;}.a9630eef-c9b3-4eb3-824b-e49d7ed63e8b{fill:#6a9c24;}.b6d1fe87-ce01-4c5a-882a-6106f8b3671d{fill:#9ee835;}.a0607cf4-a7b6-4e8d-84ba-daeb7d950bfe{fill:#2f4210;}.bcec1508-5b05-4c5d-8777-4dd180b38319{fill:#f2e5bd;}.a9d2792b-d612-49b2-84db-8d70c2b09fdf{fill:#8c4227;}</style></defs><g id="a1c3a32b-fee5-4323-a5b9-5fdce35e7299" data-name="Layer 2"><path class="ee8b903f-f430-4649-a77b-cad8baac71e0" d="M69.41,80.13S101.16,25.56,112,14.44l8.08-8.67s4-3.42,11.72-3.42a80,80,0,0,1,20,2.08s6.48,1.1,9.17,6.23c0,0,3.78,5.37,7.45,18.44l12.09,9s12.87,15.63,15.15,19.71c0,0,37.13,21.66,82.9,33.22,0,0-13,15.31-43.33,14.33,0,0-18.4-4.72-33.22-3.42,0,0-2.61,0-3,.61l-.22,6a7,7,0,0,1-1.14,4.34s13.52,5.19,16.94,9.1a127.72,127.72,0,0,0-25.25,2s12.87,4.56,19.06,16.78c0,0,4.4,11.4,2.28,23,0,0,10.67,28.42-10.34,51.63a36.41,36.41,0,0,1-11.48,27.12l-3.67-1.47s.73,12-18.08,23.45l-4.64-2.2A45.37,45.37,0,0,1,153,274.47L148.57,271s-.08,4.15-7.49,12c0,0-8.15-6.6-12.3-13.68l-2.69,3.17s-5.37-6.1-8.79-10.26l-3.18,4.16S98,258.26,93.84,243.11l-2.68,2.2s-9.53-10-11-31.27L78,215.38s-18.56-29.93-7.57-52.52c0,0-3.91-24.07,12.7-35.18,0,0-17.34-.25-24.18,5.37a61,61,0,0,1,21.62-21.13s-51.55,5-73.9-11.73"/></g><g id="b171c9a0-2bf4-4a58-88ec-586ad1ccec5b" data-name="Layer 4"><path class="bd4bc323-cbb5-4fa7-818c-8d2a4f2c57b5" d="M127.43,125l-8.09,2.72s-8.1-2.34-13-1.83c0,0-12.22-11.13-31-3.78,0,0,11.79-11.39,29.16-4.29l.4.16C122.56,125.44,107.53,121.4,127.43,125Z"/><path class="b2b8c593-299b-4fa4-bf9c-b21360f0604e" d="M152.78,125.92s7,.68,17.42-7.83c0,0,7.59-6.77,21.71-.74a45.27,45.27,0,0,0-17.61,6S162.68,132,152.78,125.92Z"/><path class="b2b8c593-299b-4fa4-bf9c-b21360f0604e" d="M113.72,132.13s-26.09-8.26-35.17,14.29c0,0-6,14.86,6.77,31,0,0,13-9.08,18.41-16.93,0,0,8.49-12.07,11.31-22.62Z"/><path class="b7436f95-2b4b-4c79-a0cc-0bc5a7eff36d" d="M160.12,133.12s-11.72.48-20.47-11.48c0,0-10.32,7-19.08,9.75,0,0,.09,24.19,19.78,34.26C140.35,165.65,156.41,160.12,160.12,133.12Z"/><path class="bd4bc323-cbb5-4fa7-818c-8d2a4f2c57b5" d="M167.14,132.13l-.82,5.7s7.35,27.16,29.23,39.63c0,0,12-16.43,6.77-30.8C202.32,146.66,196.87,125.19,167.14,132.13Z"/><path class="bd4bc323-cbb5-4fa7-818c-8d2a4f2c57b5" d="M200.58,172.26s-2.89,6.19-5,7.51c0,0-11-7.18-13.38-9.41l-.74,1.9s8.5,7.27,8.17,26.17c0,0,3.8,5.37,8.75,8C198.35,206.44,211,190,200.58,172.26Z"/><path class="b2b8c593-299b-4fa4-bf9c-b21360f0604e" d="M178,167.3s-13.13-15.6-14.94-19.81c0,0-7.19,13.29-21.39,19.81,0,0,1.74,13,17.59,22.63C159.3,189.93,174.57,182.08,178,167.3Z"/><path class="bd4bc323-cbb5-4fa7-818c-8d2a4f2c57b5" d="M139.4,167.44S124,159.13,118,147.74c0,0-10.57,15.9-15.09,19.7,0,0,1.93,13.76,18.55,22.49C121.45,189.93,136.7,182.25,139.4,167.44Z"/><path class="bd4bc323-cbb5-4fa7-818c-8d2a4f2c57b5" d="M179,177.46s21.14,24.19-6.36,40.95c0,0-16.51-8.91-12.47-26.91C160.12,191.5,177,180.1,179,177.46Z"/><path class="b7436f95-2b4b-4c79-a0cc-0bc5a7eff36d" d="M158,191.33s.31,20.42-17.65,27.69c0,0-17-6.05-17.57-27.69,0,0,14.36-7.32,18.3-12.77C141.08,178.56,146.83,185.77,158,191.33Z"/><path class="b2b8c593-299b-4fa4-bf9c-b21360f0604e" d="M102.16,177s-21.8,24.85,6,41.44c0,0,16.68-9,12.38-26.91C120.57,191.5,108.93,185.47,102.16,177Z"/><path class="bd4bc323-cbb5-4fa7-818c-8d2a4f2c57b5" d="M98.94,170.36s-10.65,8-14,9.25a42.37,42.37,0,0,1-4.79-7S71,189.35,82.43,206.44c0,0,7.51-3.88,9.33-8.75,0,0-.83-16.35,7.76-25.35Z"/><path class="b7436f95-2b4b-4c79-a0cc-0bc5a7eff36d" d="M105.22,218.41s-.17,11.23-11.18,15.2a39.8,39.8,0,0,1-1.37-31.1S92.72,209,105.22,218.41Z"/><path class="b2b8c593-299b-4fa4-bf9c-b21360f0604e" d="M104.56,229.7s2.39,13.65,11.8,22.57a8,8,0,0,1-2.72,3.62s-12.29-9.23-13-21A1.36,1.36,0,0,1,101,234Z"/><path class="bd4bc323-cbb5-4fa7-818c-8d2a4f2c57b5" d="M139.4,222s-13.84-6.69-16.62-13c0,0-3.61,8.51-14.67,11.07a2,2,0,0,1-1.11-.5s.31,24.83,19.24,41A70,70,0,0,0,139.4,222Z"/><path class="b2b8c593-299b-4fa4-bf9c-b21360f0604e" d="M141.71,222s11.64-4.63,16.68-13c0,0,1.73,6.36,14.37,11.31l.82-.57s1.32,21.57-19.07,40.84C154.51,260.58,144.08,249.46,141.71,222Z"/><path class="b7436f95-2b4b-4c79-a0cc-0bc5a7eff36d" d="M175.89,218.41l.23-.15c1.53-1,10.38-7.47,11.88-16.47,0,0,7.21,16.62-1.29,31.82A14.66,14.66,0,0,1,175.89,218.41Z"/><path class="bd4bc323-cbb5-4fa7-818c-8d2a4f2c57b5" d="M177,231s1.86,2.64,3.14,3.13c0,0,1.11,10.71-12.43,21.79a6.83,6.83,0,0,1-2.85-3.5S175.28,241.74,177,231Z"/><path class="b7436f95-2b4b-4c79-a0cc-0bc5a7eff36d" d="M133.18,255.57s5.56-6.49,7.21-14.42c0,0,2.59,8.59,7.54,14.42,0,0-.93,9.85-7.37,16C140.56,271.59,135.27,267.85,133.18,255.57Z"/></g><g id="ede265d4-442f-462a-b2d5-47b3f84b2355" data-name="Layer 5"><path class="ed8a2032-d5cf-4221-a74c-e06745367576" d="M127.43,125l-8.09,2.72s-8.1-2.34-13-1.83c0,0-12.22-11.13-31-3.78,0,0,11.79-11.39,29.16-4.29l.4.16C122.56,125.44,107.53,121.4,127.43,125Z"/><path class="f9157cdf-c4ce-43b1-8aa5-dd8cec4174ca" d="M152.78,125.92s7,.68,17.42-7.83c0,0,7.59-6.77,21.71-.74a45.27,45.27,0,0,0-17.61,6S162.68,132,152.78,125.92Z"/><path class="a9630eef-c9b3-4eb3-824b-e49d7ed63e8b" d="M113.72,132.13s-26.09-8.26-35.17,14.29c0,0-6,14.86,6.77,31,0,0,13-9.08,18.41-16.93,0,0,8.49-12.07,11.31-22.62Z"/><path class="b7436f95-2b4b-4c79-a0cc-0bc5a7eff36d" d="M160.12,133.12s-11.72.48-20.47-11.48c0,0-10.32,7-19.08,9.75,0,0,.09,24.19,19.78,34.26C140.35,165.65,156.41,160.12,160.12,133.12Z"/><path class="f9157cdf-c4ce-43b1-8aa5-dd8cec4174ca" d="M167.14,132.13l-.82,5.7s7.35,27.16,29.23,39.63c0,0,12-16.43,6.77-30.8C202.32,146.66,196.87,125.19,167.14,132.13Z"/><path class="ed8a2032-d5cf-4221-a74c-e06745367576" d="M200.58,172.26s-2.89,6.19-5,7.51c0,0-11-7.18-13.38-9.41l-.74,1.9s8.5,7.27,8.17,26.17c0,0,3.8,5.37,8.75,8C198.35,206.44,211,190,200.58,172.26Z"/><path class="a9630eef-c9b3-4eb3-824b-e49d7ed63e8b" d="M178.58,167.14s-13.13-15.61-15-19.82c0,0-7.18,13.3-21.38,19.82,0,0,1.73,13,17.59,22.62C159.84,189.76,175.11,181.92,178.58,167.14Z"/><path class="b6d1fe87-ce01-4c5a-882a-6106f8b3671d" d="M139.4,167.44S124,159.13,118,147.74c0,0-10.57,15.9-15.09,19.7,0,0,1.93,13.76,18.55,22.49C121.45,189.93,136.7,182.25,139.4,167.44Z"/><path class="f9157cdf-c4ce-43b1-8aa5-dd8cec4174ca" d="M179,177.46s21.14,24.19-6.36,40.95c0,0-16.51-8.91-12.47-26.91C160.12,191.5,177,180.1,179,177.46Z"/><path class="b7436f95-2b4b-4c79-a0cc-0bc5a7eff36d" d="M158,191.33s.31,20.42-17.65,27.69c0,0-17-6.05-17.57-27.69,0,0,14.36-7.32,18.3-12.77C141.08,178.56,146.83,185.77,158,191.33Z"/><path class="a9630eef-c9b3-4eb3-824b-e49d7ed63e8b" d="M102.16,177s-21.8,24.85,6,41.44c0,0,16.68-9,12.38-26.91C120.57,191.5,108.93,185.47,102.16,177Z"/><path class="b6d1fe87-ce01-4c5a-882a-6106f8b3671d" d="M98.94,170.36s-10.65,8-14,9.25a42.37,42.37,0,0,1-4.79-7S71,189.35,82.43,206.44c0,0,7.51-3.88,9.33-8.75,0,0-.83-16.35,7.76-25.35Z"/><path class="b7436f95-2b4b-4c79-a0cc-0bc5a7eff36d" d="M105.22,218.41s-.17,11.23-11.18,15.2a39.8,39.8,0,0,1-1.37-31.1S92.72,209,105.22,218.41Z"/><path class="ed8a2032-d5cf-4221-a74c-e06745367576" d="M104.56,229.7s2.39,13.65,11.8,22.57a8,8,0,0,1-2.72,3.62s-12.29-9.23-13-21A1.36,1.36,0,0,1,101,234Z"/><path class="b6d1fe87-ce01-4c5a-882a-6106f8b3671d" d="M139.4,222s-13.84-6.69-16.62-13c0,0-3.61,8.51-14.67,11.07a2,2,0,0,1-1.11-.5s.31,24.83,19.24,41A70,70,0,0,0,139.4,222Z"/><path class="a9630eef-c9b3-4eb3-824b-e49d7ed63e8b" d="M141.71,222s11.64-4.63,16.68-13c0,0,1.73,6.36,14.37,11.31l.82-.57s1.32,21.57-19.07,40.84C154.51,260.58,144.08,249.46,141.71,222Z"/><path class="b7436f95-2b4b-4c79-a0cc-0bc5a7eff36d" d="M175.89,218.41l.23-.15c1.53-1,10.38-7.47,11.88-16.47,0,0,7.21,16.62-1.29,31.82A14.66,14.66,0,0,1,175.89,218.41Z"/><path class="f9157cdf-c4ce-43b1-8aa5-dd8cec4174ca" d="M177,231s1.86,2.64,3.14,3.13c0,0,1.11,10.71-12.43,21.79a6.83,6.83,0,0,1-2.85-3.5S175.28,241.74,177,231Z"/><path class="b7436f95-2b4b-4c79-a0cc-0bc5a7eff36d" d="M133.18,255.57s5.56-6.49,7.21-14.42c0,0,2.59,8.59,7.54,14.42,0,0-.93,9.85-7.37,16C140.56,271.59,135.27,267.85,133.18,255.57Z"/></g><g id="b6d8e95d-7972-4655-8d7d-7b3a3dba07e1" data-name="Layer 6"><path class="ed8a2032-d5cf-4221-a74c-e06745367576" d="M136.23,176c-5.34,9.23-14.78,14-14.78,14-9.92-5.21-14.61-12.21-16.77-17,0,0,4,7.27,16.47,10.71Z"/><path class="b7436f95-2b4b-4c79-a0cc-0bc5a7eff36d" d="M145.72,176a40.09,40.09,0,0,0,14.12,13.8s11.31-5.8,16.67-16.84c0,0-9,8.7-13.66,10.24Z"/><path class="b7436f95-2b4b-4c79-a0cc-0bc5a7eff36d" d="M88.12,170.8c-3.6,1.52-9.89-7.11-9.89-7.11a37.82,37.82,0,0,0,7.09,13.77s13-9.08,18.41-16.93c0,0,2.23-3.17,4.79-7.68C108.52,152.85,96.92,167.08,88.12,170.8Z"/><path class="a0607cf4-a7b6-4e8d-84ba-daeb7d950bfe" d="M141.08,157.58a19.14,19.14,0,0,0,14.33-7.87c-6.08,12.85-15.06,15.94-15.06,15.94A34.14,34.14,0,0,1,125,149.51S135.16,158,141.08,157.58Z"/><path class="ed8a2032-d5cf-4221-a74c-e06745367576" d="M193.73,170.36c-7.89,0-21.39-18.1-21.39-18.1,4.55,8.49,11.95,18.79,23.21,25.2a50.28,50.28,0,0,0,5.77-11.07S196.21,170.36,193.73,170.36Z"/><path class="ed8a2032-d5cf-4221-a74c-e06745367576" d="M92.1,190.59a46.7,46.7,0,0,0-.34,7.1c-1.82,4.87-9.33,8.75-9.33,8.75a33.76,33.76,0,0,1-4.74-10.57s1.75,4.69,4.85,6.64S92.1,190.59,92.1,190.59Z"/><path class="b7436f95-2b4b-4c79-a0cc-0bc5a7eff36d" d="M106,212.8c-6.05.3-9.24-5.2-9.24-5.2,2.16,3.76,5.76,7.46,11.39,10.81,0,0,11-5.94,12.84-17.78C121,200.63,109.39,212.64,106,212.8Z"/><path class="a0607cf4-a7b6-4e8d-84ba-daeb7d950bfe" d="M141.08,211.64c6.85.51,15.19-10.23,15.19-10.23-2,6.24-6.42,13.77-15.92,17.61a28.45,28.45,0,0,1-15.5-16.46S132.21,211,141.08,211.64Z"/><path class="ed8a2032-d5cf-4221-a74c-e06745367576" d="M174.35,212.41c12.66-5.56,11.47-21.82,11.47-21.82,2.23,8.3,1.13,19.07-13.23,27.82a28.62,28.62,0,0,1-7.75-6.7S172.42,213.27,174.35,212.41Z"/><path class="a9630eef-c9b3-4eb3-824b-e49d7ed63e8b" d="M198.35,202.51c-3.86,1-8.17-3.32-8.17-3.32a28.78,28.78,0,0,0,8.17,7.25,34.78,34.78,0,0,0,6.34-19.81S200.58,202,198.35,202.51Z"/><path class="b7436f95-2b4b-4c79-a0cc-0bc5a7eff36d" d="M157.66,249.3c-4.64.64-10.65-2.47-10.65-2.47,3.58,9.57,7.5,13.75,7.5,13.75a61.5,61.5,0,0,0,16.4-25.11S163.21,248.52,157.66,249.3Z"/><path class="a0607cf4-a7b6-4e8d-84ba-daeb7d950bfe" d="M186,228.2c-7.92,1.21-9.62-5-9.62-5,2.07,8.49,10.36,10.44,10.36,10.44,5.74-10.26,4.32-21.16,2.79-27.17C189.5,206.44,190.59,227.5,186,228.2Z"/><path class="f9157cdf-c4ce-43b1-8aa5-dd8cec4174ca" d="M126.13,247.53c6.07.95,12.82-19.72,12.82-19.72a69.29,69.29,0,0,1-12.71,32.77,54.54,54.54,0,0,1-16-24.2S113.36,245.55,126.13,247.53Z"/><path class="a0607cf4-a7b6-4e8d-84ba-daeb7d950bfe" d="M95.09,227.81c-6.83-1.85-4.63-16.17-4.63-16.17a39.05,39.05,0,0,0,3.58,22,16.67,16.67,0,0,0,10.86-12.74S99.49,229,95.09,227.81Z"/><path class="a9630eef-c9b3-4eb3-824b-e49d7ed63e8b" d="M113,252.1c-4.88.09-11.77-13.71-11.77-13.71,2.5,10,12.43,17.5,12.43,17.5a8,8,0,0,0,2.72-3.62c-.3-.28-.59-.57-.87-.86C115.49,251.41,115.58,252.06,113,252.1Z"/><path class="ed8a2032-d5cf-4221-a74c-e06745367576" d="M168.19,252.82c5.84-.54,11.54-14.66,11.54-14.66-.89,4.12-3.65,10.85-12,17.73a6.83,6.83,0,0,1-2.85-3.5S164.91,253.12,168.19,252.82Z"/><path class="a0607cf4-a7b6-4e8d-84ba-daeb7d950bfe" d="M141.08,263.17c3,.33,6.39-4.91,6.39-4.91-.74,3.37-2.58,9.18-6.91,13.33,0,0-4.65-3.29-6.95-13.81C133.61,257.78,136.38,262.65,141.08,263.17Z"/><path class="ed8a2032-d5cf-4221-a74c-e06745367576" d="M171,123.34c-7.46,4.57-16.61,3.43-16.61,3.43,9.52,4.34,19.93-3.47,19.93-3.47a46.8,46.8,0,0,1,13.29-5.23S181.45,116.92,171,123.34Z"/><path class="a9630eef-c9b3-4eb3-824b-e49d7ed63e8b" d="M109,124.16c-13-6-23.9-4.39-23.9-4.39a29.13,29.13,0,0,1,21.3,6.15c4.87-.51,13,1.83,13,1.83l8.09-2.72S113.5,126.25,109,124.16Z"/><path class="ee8b903f-f430-4649-a77b-cad8baac71e0" d="M138.87,122.15l.78-.51c.38.52.77,1,1.17,1.51l-1,25.47Z"/><path class="ee8b903f-f430-4649-a77b-cad8baac71e0" d="M162.28,149.51s2.94,19,1.39,28.45c0,0,2.31-15.61,1.21-28.45l-1.43-4.75Z"/><path class="ee8b903f-f430-4649-a77b-cad8baac71e0" d="M116.79,149.51s-.34,18.46,3.12,28c0,0-1.77-16.63-.51-27.35l-1.05-4.77Z"/><path class="ee8b903f-f430-4649-a77b-cad8baac71e0" d="M166.32,134.11l-.56-4.13,3.86,1.41s24.74,4.5,25.82,23.12C195.44,154.51,191.17,133.78,166.32,134.11Z"/><path class="ee8b903f-f430-4649-a77b-cad8baac71e0" d="M114,132.36l0-4.17-3.75,2s-24.73,8.3-23.05,26.87C87.13,157.05,88.41,135.9,114,132.36Z"/><path class="ee8b903f-f430-4649-a77b-cad8baac71e0" d="M103.38,178.44l-1.93-3.8-1.94,4.53S97,192.52,104,203.27C104,203.27,97.68,188.92,103.38,178.44Z"/><path class="ee8b903f-f430-4649-a77b-cad8baac71e0" d="M138.87,179.44l2.51-2.47,1.82,2.47s2.56,8.26-1.49,27.42C141.71,206.86,143.3,188,138.87,179.44Z"/><path class="ee8b903f-f430-4649-a77b-cad8baac71e0" d="M170.78,183.69l3.69-3a47.28,47.28,0,0,1,1.93,26.4S177.39,184.47,170.78,183.69Z"/><path class="ee8b903f-f430-4649-a77b-cad8baac71e0" d="M83.47,175.64l2.14,2.92,1.16-.6a55.73,55.73,0,0,0-3.3,17.75A106.46,106.46,0,0,1,83.47,175.64Z"/><path class="ee8b903f-f430-4649-a77b-cad8baac71e0" d="M193.67,178l1.77,1,1.15-1s3.08,4.4,2.26,18.93C198.85,196.89,198.63,182.19,193.67,178Z"/><path class="ee8b903f-f430-4649-a77b-cad8baac71e0" d="M121,210.22l1.75-2.46,2.07,2.81a185.3,185.3,0,0,0-.77,33.21S121.39,220.43,121,210.22Z"/><path class="ee8b903f-f430-4649-a77b-cad8baac71e0" d="M156.27,210.65l2.4-2.89,2.75,4.27a97,97,0,0,1-2.58,31.4S160.91,214.94,156.27,210.65Z"/></g><g id="a54d03f3-683e-4126-95bc-50e78f1a21c4" data-name="Layer 7"><path class="ed8a2032-d5cf-4221-a74c-e06745367576" d="M147.45,94.13l21.84-3.61s6.82-1.52,5.26,1.8l-3.86,7.23s-1.25,3.37-11.25,0Z"/><path class="b6d1fe87-ce01-4c5a-882a-6106f8b3671d" d="M150.6,94.47l16.81-2.78s5.24-1.17,4,1.39l-3,5.56s-1,2.59-8.65,0Z"/><path class="ed8a2032-d5cf-4221-a74c-e06745367576" d="M134.65,93.85l-22.32-3.51s-6.57-1.17-4.54,4.76c0,0,.9,1.93,4.54,4.37,0,0,2.18,2.09,8.7,0Z"/><path class="b6d1fe87-ce01-4c5a-882a-6106f8b3671d" d="M131.48,94.19,114.35,91.5s-5-.9-3.48,3.65c0,0,.69,1.49,3.48,3.36,0,0,1.68,1.6,6.68,0Z"/></g><g id="b9579f6e-1cd8-4588-9073-72e1c3464c89" data-name="Layer 3"><path class="b2b8c593-299b-4fa4-bf9c-b21360f0604e" d="M32.89,100.56S63.67,103,82,92.38c0,0,18-13.56,37.5-12.95a136.9,136.9,0,0,1,14.83.89s8.75,2.59,30.19,3c0,0,15.08,1.16,28.15-2.14,0,0,8.55-2.14,16.55-.37,0,0,5.32.52,21.69,6.23l12.85,4.09a49.21,49.21,0,0,0,10.42,1.38l4.76,0L228.27,82s-13-5.7-16.23-7.33L208.77,73S191.56,63.79,189,62.86a75.55,75.55,0,0,0-27.32-3.26s22.8,3,26.67,5.82L194.62,69s11.6,6.6,19.42,9.33c0,0-10.63-1.55-16.17-.53l-7.73,1.63s-9.37,1.91-16.49.2c0,0,18-1.83,22.76-4.48,0,0-11.32,1.47-18.12.21a55,55,0,0,1-16.37-6s-7.69-5-20.23-5.17a88.22,88.22,0,0,0-12.26.49,24.71,24.71,0,0,1-3.42.16s-.09-1.07,5-2.36c0,0-24.51,3.3-35.67,10.55l-8.63,6.35s-13.85,9-22.72,12C64,91.48,47.1,98.73,32.89,100.56Z"/><path class="bd4bc323-cbb5-4fa7-818c-8d2a4f2c57b5" d="M58.3,96.53A70.16,70.16,0,0,0,81.38,86.15S90.5,79.9,95.23,75.36a80.93,80.93,0,0,1,6.59-5.55,82.29,82.29,0,0,1,12.48-4l5.68.47s-1.43.66-2.15,3.21c0,0,.24.21,2.15-.24a61,61,0,0,1,15.48-1.79s13.23-.61,22.84,3.46c0,0,7.77,2.48,7.45,6.84,0,0-1.3,5.66-12.34,4.93,0,0-19.66-1.35-25.45-3.67a112.71,112.71,0,0,0-16.45-1.14s-15.29,1.39-22.13,7.19A55.16,55.16,0,0,1,58.3,96.53Z"/><path class="bcec1508-5b05-4c5d-8777-4dd180b38319" d="M101.82,69.81s-6.43,2.29-14.33,9A154.82,154.82,0,0,1,72.1,88S59.73,94.67,33,100.44c0,0,27.44,1.91,41.85-4.75,0,0,5.93-2,16.78-8.57a47.37,47.37,0,0,1,22-7.39s11.22-.49,18.08.37c0,0-20-7-39.52,3.05,0,0-12.45,7.94-16.42,9.53,0,0-6.6,3.23-17.23,3.79,0,0,13.44-2.87,24.25-11.18,0,0,5.86-4.09,8.12-6.05C91,79.24,98.91,72.19,101.82,69.81Z"/><path class="bcec1508-5b05-4c5d-8777-4dd180b38319" d="M93.92,67.29,101.25,53s10.43-7.41,23-8.63c0,0,20.36-1.47,36.81-.49l14.9.9,12.62,15.14L175.44,47l-13.84-.74s-14.42,0,1.87,9.78c0,0-16.45-2.61-30.38.57C133.09,56.63,124.14,57.28,93.92,67.29Z"/><path class="a9d2792b-d612-49b2-84db-8d70c2b09fdf" d="M124.3,44.33s20.36-1.47,36.81-.49l14.9.9,12.62,15.14L175.44,47l-13.84-.74s-14.42,0,1.87,9.78c0,0-16.45-2.61-30.38.57,0,0-6.72.48-28.16,7.13,0,0-4-.3-2.87-5a2.56,2.56,0,0,0,3-.45s2.08-2.34.37-4.7C105.42,53.63,110.35,48.56,124.3,44.33Z"/><path class="b2b8c593-299b-4fa4-bf9c-b21360f0604e" d="M129.43,18c-2.78,3.54-6.48,5.16-8.88,8.22a135,135,0,0,0-12.86,19.46c28.05-8.83,33.22-4.48,39.41-5.54s23.21,0,23.21,0S160.62,30.32,159.64,26a28.16,28.16,0,0,0-3.09-9.61s-.11-1.25-2.58-4.22c0,0-4-1.31-13.44-2.29l-9.13-.61a22.8,22.8,0,0,0-6.38.19s-1.19-.33-8.29,5.62C103.81,25.92,90.3,52.68,78.45,75.27c-1.57,3,5.87-6.43,8.19-6.47l24.18-36.22s11.91-16.06,16.25-16.51C127.07,16.07,130.9,16.07,129.43,18Z"/><path class="bcec1508-5b05-4c5d-8777-4dd180b38319" d="M120.55,26.17a135,135,0,0,0-12.86,19.46c4.07-1.28,7.65-2.28,10.83-3.07,0,0-2.36-2.63-.29-8.12S129.43,18,129.43,18s-6.48,5.16-8.88,8.22a135,135,0,0,0-12.86,19.46"/><path class="bcec1508-5b05-4c5d-8777-4dd180b38319" d="M131.4,9.28a22.8,22.8,0,0,0-6.38.19s-1.19-.33-8.29,5.62C103.81,25.92,90.3,52.68,78.45,75.27c-1,1.82,1.41-.94,3.94-3.4C82.39,71.87,109.44,11.94,131.4,9.28Z"/></g></svg>