<?xml version="1.0" encoding="utf-8"?>
<!-- Generator: Adobe Illustrator 25.1.0, SVG Export Plug-In . SVG Version: 6.00 Build 0)  -->
<svg version="1.1" id="Layer_1" xmlns="http://www.w3.org/2000/svg" xmlns:xlink="http://www.w3.org/1999/xlink" x="0px" y="0px"
	 viewBox="0 0 420 75" style="enable-background:new 0 0 420 75;" xml:space="preserve">
<style type="text/css">
	.st0{fill:#403F35;}
	.st1{fill:#84C22D;}
	.st2{fill:#95DB33;}
	.st3{fill:#6A9C24;}
	.st4{fill:#BF8136;}
	.st5{fill:#3E5C15;}
	.st6{fill:#9EE835;}
	.st7{fill:#2F4210;}
	.st8{fill:#A67232;}
	.st9{fill:#F2E5BD;}
	.st10{fill:#8C4227;}
	.st11{fill:#403F35;stroke:#403F35;stroke-width:0.5;stroke-miterlimit:10;}
	.st12{fill:none;stroke:#403F35;stroke-miterlimit:10;}
</style>
<symbol  id="rw-logo" viewBox="-28.1 -29 56.1 57.9">
	<path class="st0" d="M-15.1,12.9c0,0,6.6,11.3,8.8,13.6l1.7,1.8c0,0,0.8,0.7,2.4,0.7c0,0,1.8,0.1,4.1-0.4c0,0,1.3-0.2,1.9-1.3
		c0,0,0.8-1.1,1.5-3.8l2.5-1.8c0,0,2.7-3.2,3.1-4.1c0,0,7.7-4.5,17.1-6.9c0,0-2.7-3.2-8.9-3c0,0-2.1,0.1-6.9,0.7c0,0-0.5,0-0.6-0.1
		l0-1.2c0,0,0.1-0.4-0.2-0.9c0,0,2.8-1.1,3.5-1.9c0,0-2.5,0.1-5.2-0.4c0,0,2.7-0.9,3.9-3.5c0,0,0.9-2.4,0.5-4.7
		c0,0,2.2-5.9-2.1-10.7c0,0,0.3-3.1-2.4-5.6l-0.8,0.3c0,0,0.2-2.5-3.7-4.8l-1,0.5c0,0-0.8-1.5-2-2.5l-0.9,0.7c0,0,0-0.9-1.5-2.5
		c0,0-1.7,1.4-2.5,2.8l-0.6-0.7c0,0-1.1,1.3-1.8,2.1l-0.7-0.9c0,0-3.3,1.7-4.2,4.8l-0.6-0.5c0,0-2,2.1-2.3,6.5l-0.5-0.3
		c0,0-3.8,6.2-1.6,10.8c0,0-0.8,5,2.6,7.3c0,0-3.6,0.1-5-1.1c0,0,1.5,2.7,4.5,4.4c0,0-10.6-1-15.3,2.4"/>
	<path class="st0" d="M-14.1,14.5"/>
	<path class="st1" d="M-3.1,3.6l-1.7-0.6c0,0-1.7,0.5-2.7,0.4c0,0-2.5,2.3-6.4,0.8c0,0,2.4,2.4,6,0.9c0,0,0.1,0,0.1,0
		C-4.1,3.5-7.2,4.4-3.1,3.6z"/>
	<path class="st2" d="M2.1,3.4c0,0,1.4-0.1,3.6,1.6c0,0,1.6,1.4,4.5,0.2c0,0-1.8-0.1-3.6-1.2C6.5,4,4.1,2.2,2.1,3.4z"/>
	<path class="st3" d="M-6,2.2c0,0-5.4,1.7-7.3-2.9c0,0-1.2-3.1,1.4-6.4c0,0,2.7,1.9,3.8,3.5c0,0,1.8,2.5,2.3,4.7L-6,2.2z"/>
	<path class="st4" d="M-4.6,2.3"/>
	<path class="st5" d="M3.6,2c0,0-2.4-0.1-4.2,2.4c0,0-2.1-1.5-3.9-2c0,0,0-5,4.1-7.1C-0.5-4.8,2.8-3.6,3.6,2z"/>
	<path class="st2" d="M5.1,2.2L4.9,1c0,0,1.5-5.6,6-8.2c0,0,2.5,3.4,1.4,6.4C12.3-0.8,11.2,3.6,5.1,2.2z"/>
	<path class="st1" d="M12-6.1c0,0-0.6-1.3-1-1.6c0,0-2.3,1.5-2.8,1.9L8-6.1c0,0,1.8-1.5,1.7-5.4c0,0,0.8-1.1,1.8-1.7
		C11.5-13.2,14.1-9.8,12-6.1z"/>
	<path class="st3" d="M7.4-5.1c0,0-2.7,3.2-3.1,4.1c0,0-1.5-2.7-4.4-4.1c0,0,0.4-2.7,3.6-4.7C3.6-9.7,6.7-8.1,7.4-5.1z"/>
	<path class="st6" d="M-0.7-5.1c0,0-3.2,1.7-4.4,4.1c0,0-2.2-3.3-3.1-4.1c0,0,0.4-2.8,3.8-4.6C-4.4-9.8-1.2-8.2-0.7-5.1z"/>
	<path class="st2" d="M7.5-7.2c0,0,4.4-5-1.3-8.5c0,0-3.4,1.8-2.6,5.6C3.6-10.1,7.1-7.7,7.5-7.2z"/>
	<path class="st5" d="M3.2-10.1c0,0,0.1-4.2-3.6-5.7c0,0-3.5,1.2-3.6,5.7c0,0,3,1.5,3.8,2.6C-0.3-7.4,0.9-8.9,3.2-10.1z"/>
	<path class="st3" d="M-8.4-7.1c0,0-4.5-5.1,1.2-8.6c0,0,3.4,1.9,2.6,5.6C-4.6-10.1-7-8.8-8.4-7.1z"/>
	<path class="st6" d="M-9-5.7c0,0-2.2-1.7-2.9-1.9c0,0-0.6,0.6-1,1.4c0,0-1.9-3.5,0.5-7c0,0,1.6,0.8,1.9,1.8c0,0-0.2,3.4,1.6,5.2
		L-9-5.7z"/>
	<path class="st5" d="M-7.7-15.6c0,0,0-2.3-2.3-3.1c0,0-1.6,2.9-0.3,6.4C-10.3-12.4-10.3-13.7-7.7-15.6z"/>
	<path class="st1" d="M-7.9-18c0,0,0.5-2.8,2.4-4.7c0,0-0.2-0.5-0.6-0.7c0,0-2.5,1.9-2.7,4.3c0,0.1,0,0.1,0.1,0.2L-7.9-18z"/>
	<path class="st6" d="M-0.7-16.4c0,0-2.9,1.4-3.4,2.7c0,0-0.7-1.8-3-2.3c0,0-0.1,0-0.2,0.1c0,0,0.1-5.1,4-8.5
		C-3.4-24.3-0.8-21.2-0.7-16.4z"/>
	<path class="st3" d="M-0.2-16.4c0,0,2.4,1,3.4,2.7c0,0,0.4-1.3,3-2.3l0.2,0.1c0,0,0.3-4.5-3.9-8.4C2.5-24.3,0.3-22.1-0.2-16.4z"/>
	<path class="st5" d="M6.9-15.6C6.9-15.6,6.9-15.6,6.9-15.6c0.4,0.2,2.2,1.6,2.5,3.4c0,0,1.5-3.4-0.3-6.6
		C9.1-18.8,6.8-18.2,6.9-15.6z"/>
	<path class="st2" d="M7.1-18.2c0,0,0.4-0.5,0.6-0.6c0,0,0.2-2.2-2.6-4.5c0,0-0.5,0.3-0.6,0.7C4.6-22.7,6.7-20.5,7.1-18.2z"/>
	<path class="st5" d="M-1.9-23.3c0,0,1.1,1.3,1.5,3c0,0,0.5-1.8,1.6-3c0,0-0.2-2-1.5-3.3C-0.4-26.6-1.5-25.8-1.9-23.3z"/>
	<path class="st1" d="M-1.3-6.9c-1.1-1.9-3-2.9-3-2.9c-2,1.1-3,2.5-3.5,3.5c0,0,0.8-1.5,3.4-2.2L-1.3-6.9z"/>
	<path class="st5" d="M0.6-6.9C1.2-7.8,2-8.8,3.6-9.7c0,0,2.3,1.2,3.4,3.5c0,0-1.9-1.8-2.8-2.1L0.6-6.9z"/>
	<path class="st5" d="M-11.3-5.8c-0.7-0.3-2,1.5-2,1.5c0.2-0.9,0.7-1.8,1.5-2.8c0,0,2.7,1.9,3.8,3.5c0,0,0.5,0.7,1,1.6
		C-7-2.1-9.4-5-11.3-5.8z"/>
	<path class="st7" d="M-0.3-3.1c2,0.1,3,1.6,3,1.6C1.4-4.1-0.5-4.8-0.5-4.8C-2.1-3.9-3-2.7-3.6-1.4C-3.6-1.4-1.5-3.2-0.3-3.1z"/>
	<path class="st1" d="M10.5-5.7C8.9-5.7,6.1-2,6.1-2c0.9-1.8,2.5-3.9,4.8-5.2c0,0,0.7,1,1.2,2.3C12.1-4.9,11.1-5.7,10.5-5.7z"/>
	<path class="st1" d="M-10.4-9.9c-0.1-0.9-0.1-1.5-0.1-1.5c-0.4-1-1.9-1.8-1.9-1.8c-0.5,0.7-0.8,1.5-1,2.2c0,0,0.4-1,1-1.4
		C-11.8-12.8-10.4-9.9-10.4-9.9z"/>
	<path class="st5" d="M-7.6-14.5c-1.2-0.1-1.9,1.1-1.9,1.1c0.4-0.8,1.2-1.5,2.4-2.2c0,0,2.3,1.2,2.6,3.7C-4.5-12-6.9-14.5-7.6-14.5z
		"/>
	<path class="st7" d="M-0.3-14.2c1.4-0.1,3.1,2.1,3.1,2.1c-0.4-1.3-1.3-2.8-3.3-3.6c0,0-2.2,0.8-3.2,3.4
		C-3.7-12.4-2.1-14.1-0.3-14.2z"/>
	<path class="st1" d="M6.5-14.4c2.6,1.1,2.4,4.5,2.4,4.5c0.5-1.7,0.2-3.9-2.7-5.7c0,0-0.9,0.5-1.6,1.4C4.6-14.3,6.1-14.6,6.5-14.4z"
		/>
	<path class="st3" d="M11.5-12.4c-0.8-0.2-1.7,0.7-1.7,0.7c0.3-0.3,0.9-1.1,1.7-1.5c0,0,1.3,1.7,1.3,4.1C12.8-9.1,12-12.2,11.5-12.4
		z"/>
	<path class="st5" d="M3.1-22c-1-0.1-2.2,0.5-2.2,0.5c0.7-2,1.5-2.8,1.5-2.8c1.9,1.8,2.9,3.7,3.4,5.2C5.8-19.2,4.2-21.9,3.1-22z"/>
	<path class="st7" d="M8.9-17.7c-1.6-0.2-2,1-2,1c0.4-1.8,2.1-2.2,2.1-2.2c1.2,2.1,0.9,4.4,0.6,5.6C9.7-13.2,9.9-17.5,8.9-17.7z"/>
	<path class="st2" d="M-3.4-21.7c1.3-0.2,2.6,4.1,2.6,4.1c-0.5-4.1-2.6-6.8-2.6-6.8c-1.8,1.5-2.8,3.4-3.3,5
		C-6.7-19.4-6-21.2-3.4-21.7z"/>
	<path class="st7" d="M-9.8-17.6c-1.4,0.4-1,3.3-1,3.3c-0.3-2.6,0.7-4.5,0.7-4.5c1.6,0.6,2.1,1.9,2.2,2.6
		C-7.8-16.2-8.9-17.8-9.8-17.6z"/>
	<path class="st3" d="M-6.1-22.6c-1,0-2.4,2.8-2.4,2.8C-8-21.8-6-23.4-6-23.4c0.4,0.3,0.6,0.7,0.6,0.7c-0.1,0.1-0.1,0.1-0.2,0.2
		C-5.6-22.5-5.6-22.6-6.1-22.6z"/>
	<path class="st1" d="M5.3-22.7c1.2,0.1,2.4,3,2.4,3c-0.2-0.9-0.8-2.2-2.5-3.7c0,0-0.5,0.3-0.6,0.7C4.6-22.7,4.6-22.8,5.3-22.7z"/>
	<path class="st7" d="M-0.3-24.9c0.6-0.1,1.3,1,1.3,1c-0.2-0.7-0.5-1.9-1.4-2.8c0,0-1,0.7-1.4,2.9C-1.9-23.8-1.3-24.8-0.3-24.9z"/>
	<path class="st1" d="M5.9,4C4.3,3,2.4,3.3,2.4,3.3C4.4,2.4,6.5,4,6.5,4c1,0.6,2.1,0.9,2.7,1.1C9.3,5.1,8,5.3,5.9,4z"/>
	<path class="st3" d="M-6.9,3.8c-2.7,1.2-4.9,0.9-4.9,0.9C-9.2,5-7.5,3.4-7.5,3.4c1,0.1,2.7-0.4,2.7-0.4l1.7,0.6
		C-3.1,3.6-6,3.4-6.9,3.8z"/>
	<path class="st0" d="M-0.8,4.2c0.1,0.1,0.2,0.1,0.2,0.1C-0.5,4.2-0.5,4.1-0.4,4l-0.2-5.3L-0.8,4.2z"/>
	<path class="st0" d="M4.1-1.4c0,0,0.6-3.9,0.3-5.9c0,0,0.5,3.2,0.2,5.9l-0.3,1L4.1-1.4z"/>
	<path class="st0" d="M-5.3-1.4c0,0-0.1-3.8,0.6-5.8c0,0-0.4,3.4-0.1,5.6l-0.2,1L-5.3-1.4z"/>
	<path class="st0" d="M4.9,1.8L4.8,2.6l0.8-0.3c0,0,5.1-0.9,5.3-4.8C10.9-2.5,10,1.8,4.9,1.8z"/>
	<path class="st0" d="M-5.9,2.1l0,0.9l-0.8-0.4c0,0-5.1-1.7-4.8-5.5C-11.5-3-11.2,1.4-5.9,2.1z"/>
	<path class="st0" d="M-8.1-7.4l-0.4,0.8l-0.4-0.9c0,0-0.5-2.8,0.9-5C-8-12.5-9.3-9.6-8.1-7.4z"/>
	<path class="st0" d="M-0.8-7.6l0.5,0.5l0.4-0.5c0,0,0.5-1.7-0.3-5.7C-0.2-13.3,0.1-9.4-0.8-7.6z"/>
	<path class="st0" d="M5.8-8.5l0.8,0.6c0,0,1-2.3,0.4-5.4C7-13.3,7.2-8.6,5.8-8.5z"/>
	<path class="st0" d="M-12.2-6.8l0.4-0.6l0.2,0.1c0,0-0.7-1.7-0.7-3.7C-12.2-11-12.4-9.4-12.2-6.8z"/>
	<path class="st0" d="M10.5-7.3l0.4-0.2l0.2,0.2c0,0,0.6-0.9,0.5-3.9C11.6-11.2,11.6-8.2,10.5-7.3z"/>
	<path class="st0" d="M-4.5-14l0.4,0.5l0.4-0.6c0,0-0.4-2.8-0.2-6.9C-3.8-20.9-4.4-16.1-4.5-14z"/>
	<path class="st0" d="M2.8-14l0.5,0.6l0.6-0.9c0,0,0.3-3.1-0.5-6.5C3.3-20.8,3.8-14.9,2.8-14z"/>
	<g>
		<path class="st1" d="M1,10l4.5,0.7c0,0,1.4,0.3,1.1-0.4L5.8,8.9c0,0-0.3-0.7-2.3,0L1,10z"/>
		<path class="st6" d="M1.6,9.9l3.5,0.6c0,0,1.1,0.2,0.8-0.3L5.3,9.1c0,0-0.2-0.5-1.8,0L1.6,9.9z"/>
	</g>
	<g>
		<path class="st1" d="M-1.6,10.1l-4.6,0.7c0,0-1.4,0.2-0.9-1c0,0,0.2-0.4,0.9-0.9c0,0,0.5-0.4,1.8,0L-1.6,10.1z"/>
		<path class="st6" d="M-2.3,10l-3.5,0.6c0,0-1,0.2-0.7-0.8c0,0,0.1-0.3,0.7-0.7c0,0,0.3-0.3,1.4,0L-2.3,10z"/>
	</g>
	<path class="st8" d="M-22.6,8.7c0,0,6.4-0.5,10.1,1.7c0,0,3.7,2.8,7.7,2.7c0,0,2,0,3.1-0.2c0,0,1.8-0.5,6.2-0.6
		c0,0,3.1-0.2,5.8,0.4c0,0,1.8,0.4,3.4,0.1c0,0,1.1-0.1,4.5-1.3l2.7-0.8c0,0,1-0.3,2.1-0.3l1,0l-6.3,2.2c0,0-2.7,1.2-3.3,1.5
		s-0.7,0.3-0.7,0.3s-3.6,1.9-4.1,2.1c0,0-2.5,0.9-5.6,0.7c0,0,4.7-0.6,5.5-1.2l1.3-0.7c0,0,2.4-1.4,4-1.9c0,0-2.2,0.3-3.3,0.1
		L9.8,13c0,0-1.9-0.4-3.4,0c0,0,3.7,0.4,4.7,0.9c0,0-2.3-0.3-3.7,0c0,0-1.8,0.3-3.4,1.2c0,0-1.6,1-4.2,1.1c0,0-1,0.1-2.5-0.1
		c0,0-0.2,0-0.7,0c0,0,0,0.2,1,0.5c0,0-5.1-0.7-7.4-2.2l-1.8-1.3c0,0-2.9-1.9-4.7-2.5C-16.2,10.6-19.7,9.1-22.6,8.7z"/>
	<path class="st4" d="M-17.4,9.5c0,0,2.3,0.5,4.8,2.1c0,0,1.9,1.3,2.9,2.2c0,0,0.6,0.6,1.4,1.1c0,0,0.8,0.4,2.6,0.8l1.2-0.1
		c0,0-0.3-0.1-0.4-0.7c0,0,0.1,0,0.4,0.1c0,0,1.6,0.4,3.2,0.4c0,0,2.7,0.1,4.7-0.7c0,0,1.6-0.5,1.5-1.4c0,0-0.3-1.2-2.5-1
		c0,0-4.1,0.3-5.3,0.8c0,0-1.4,0.2-3.4,0.2c0,0-3.2-0.3-4.6-1.5C-11,11.9-13.5,9.7-17.4,9.5z"/>
	<path class="st9" d="M-8.4,15c0,0-1.3-0.5-3-1.8c0,0-1.4-1-3.2-1.9c0,0-2.6-1.4-8.1-2.6c0,0,5.7-0.4,8.6,1c0,0,1.2,0.4,3.5,1.8
		c0,0,1.9,1.3,4.6,1.5c0,0,2.3,0.1,3.7-0.1c0,0-4.1,1.4-8.2-0.6c0,0-2.6-1.6-3.4-2c0,0-1.4-0.7-3.6-0.8c0,0,2.8,0.6,5,2.3
		c0,0,1.2,0.8,1.7,1.2C-10.7,13.1-9,14.5-8.4,15z"/>
	<path class="st9" d="M-10.1,15.5l1.5,3c0,0,2.2,1.5,4.8,1.8c0,0,4.2,0.3,7.6,0.1l3.1-0.2l2.6-3.1l-2.7,2.7l-2.9,0.2c0,0-3,0,0.4-2
		c0,0-3.4,0.5-6.3-0.1C-2,17.7-3.8,17.6-10.1,15.5z"/>
	<path class="st10" d="M-3.8,20.3c0,0,4.2,0.3,7.6,0.1l3.1-0.2l2.6-3.1l-2.7,2.7l-2.9,0.2c0,0-3,0,0.4-2c0,0-3.4,0.5-6.3-0.1
		c0,0-1.4-0.1-5.8-1.5c0,0-0.8,0.1-0.6,1c0,0,0.4-0.2,0.6,0.1c0,0,0.4,0.5,0.1,1C-7.7,18.4-6.7,19.4-3.8,20.3z"/>
	<path class="st8" d="M-2.7,25.7C-3.3,25-4.1,24.7-4.6,24c-1.7-2.2-2.7-4-2.7-4c5.8,1.8,6.9,0.9,8.1,1.1c1.3,0.2,4.8,0,4.8,0
		s-2,2-2.2,2.9c0,0-0.1,1.1-0.6,2c0,0,0,0.3-0.5,0.9c0,0-0.8,0.3-2.8,0.5l-1.9,0.1c0,0-0.7,0.1-1.3,0c0,0-0.2,0.1-1.7-1.2
		c-2.7-2.2-5.5-7.8-7.9-12.4c-0.3-0.6,1.2,1.3,1.7,1.3l5,7.5c0,0,2.5,3.3,3.4,3.4C-3.2,26.1-2.4,26.1-2.7,25.7z"/>
	<path class="st9" d="M-2.3,27.5c0,0-0.7,0.1-1.3,0c0,0-0.2,0.1-1.7-1.2c-2.7-2.2-5.5-7.8-7.9-12.4c-0.2-0.4,0.3,0.2,0.8,0.7
		C-12.4,14.6-6.8,27-2.3,27.5z"/>
</symbol>
<g>
	<g id="Left_Lightning_1_">
		<path class="st1" d="M81.3,22.5l-8.1,2c0,0-2.1,4.5-2.4,9.5l2.9-3c0,0-1.1,6.8,1.7,12.6l1.6-2.8c0,0,3.2,7.6,9.7,9.9
			c0,0-2.4-2.4-3.8-8.8l-1.2,1c0,0-1.2-2.6,0.9-10.7l-3.5,2.4C79.1,34.6,77.8,29.1,81.3,22.5z"/>
		<path class="st6" d="M81.3,22.5l-8.1,2c0,0-2.1,4.5-2.4,9.5l2.9-3c0,0-1.1,6.8,1.7,12.6C75.3,43.5,72.8,32.9,81.3,22.5z"/>
		<path class="st11" d="M87.6,51.3l-1.1-0.4c-5.5-2-8.7-7.8-9.6-9.6l-1.6,2.8l-0.2-0.5c-2.2-4.6-2-9.9-1.8-11.9l-2.8,3l0-0.7
			c0.3-5,2.4-9.5,2.4-9.6l0.1-0.1l8.8-2.2l-0.3,0.5c-2.8,5.4-2.4,10.1-2.2,11.5l3.8-2.6l-0.2,0.7c-1.5,5.6-1.4,8.9-1.1,10.2l1.2-1
			l0.1,0.4c1.3,6.2,3.7,8.6,3.7,8.7L87.6,51.3z M77,40.2l0.2,0.5c0,0.1,3,6.8,8.6,9.4c-0.8-1.1-2.1-3.5-3.1-7.7l-1.1,0.9L81.4,43
			c0-0.1-1.1-2.6,0.8-10.2L78.9,35l-0.1-0.4c-0.1-0.2-1.2-5.4,1.9-11.7l-7.4,1.9c-0.3,0.7-1.9,4.4-2.2,8.5l3-3.1L74,31
			c0,0.1-1,6.4,1.4,11.9L77,40.2z"/>
	</g>
	<g id="Right_Lightning_1_">
		<path class="st1" d="M401.3,23l7.8,0.9c0,0,2.5,4,3.4,8.6l-3.1-2.5c0,0,1.8,6.3,0,12l-1.8-2.4c0,0-2.1,7.5-7.9,10.4
			c0,0,1.9-2.6,2.5-8.7l1.2,0.8c0,0,0.8-2.6-2.2-9.9l3.6,1.9C404.8,34.1,405.3,28.7,401.3,23z"/>
		<path class="st6" d="M401.3,23l7.8,0.9c0,0,2.5,4,3.4,8.6l-3.1-2.5c0,0,1.8,6.3,0,12C409.4,42,410.5,31.7,401.3,23z"/>
		<path class="st11" d="M399.5,49.9c0,0,1.9-2.6,2.4-8.6l0-0.4l1.2,0.8c0.1-1.2-0.2-4.3-2.2-9.4l-0.3-0.6l3.8,2
			c0-1.3-0.2-5.8-3.5-10.5l-0.3-0.5l8.5,1l0.1,0.1c0,0,2.6,4.1,3.4,8.7l0.1,0.7l-3-2.4c0.4,1.8,1.3,6.8-0.2,11.4l-0.2,0.5l-1.8-2.4
			c-0.6,1.7-2.9,7.6-7.8,10.1l-1,0.5L399.5,49.9z M409.3,41.4c1.6-5.4-0.1-11.3-0.1-11.4l-0.2-0.8l3.2,2.6c-0.8-3.8-2.8-7.1-3.1-7.7
			l-7.2-0.9c3.7,5.6,3.2,10.6,3.2,10.8l0,0.4l-3.3-1.7c2.7,6.8,2,9.3,1.9,9.4l-0.1,0.3l-1.1-0.7c-0.4,4-1.4,6.4-2,7.6
			c5-3.1,6.9-9.7,6.9-9.8l0.1-0.5L409.3,41.4z"/>
	</g>
	<g id="Wizard_4_">
		<g id="Base_3_">
			<path class="st6" d="M288.9,17.8c0,0-0.1,0.8-1,0.8s-1.8,3.9-1.9,4.1l-6.3,30.2c-0.1,0.2-0.9,4.1,0,4.1c0.8,0,0.5,0.8,0.5,0.8
				h-7.3L269.3,31l-3.7,21.9c-0.1,0.2-0.9,4.1,0,4.1c0.8,0,0.5,0.8,0.5,0.8h-8.9c0,0-0.2-0.8,0.6-0.8c0.9,0,0.3-4,0.2-4.1l-4.8-30.2
				c-0.1-0.1-0.8-4.1-1.7-4.1c-0.8,0-0.9-0.8-0.9-0.8h8.8c0,0,0.2,0.8-0.6,0.8c-0.9,0-0.3,3.9-0.2,4.1l4.2,27.1
				c0,0,4.9-27.1,4.9-27.2c-0.2-0.8-0.9-3.9-1.6-3.9c-0.9,0-0.9-0.8-0.9-0.8h7.1l4.6,32l5.6-27.1c0.1-0.1,0.9-4.1,0-4.1
				c-0.8,0-0.5-0.8-0.5-0.8H288.9z"/>
			<path class="st6" d="M299.5,54.9h-8.8c0,0-0.1-0.8,0.7-0.8c0.9,0,0.9-3.9,0.9-4.1V25.6c0-0.2-0.1-4.1-0.9-4.1
				c-0.9,0-0.7-0.8-0.7-0.8h8.8c0,0,0.1,0.8-0.7,0.8c-0.9,0-1,4.2-1,4.2V50c0,0,0.1,4.1,1,4.1C299.6,54.1,299.5,54.9,299.5,54.9z"/>
			<path class="st6" d="M318,42.7c0,0-1.9,4.5,0,12.2h-16.2l11.2-32.3H309c-5.2,0.1,0.4,8.3-2.8,11.4c-0.9,0.8-1.9,0.7-2.7,0.5
				c-0.8-0.3-1.5-1-1.5-1.9c0-0.7,0.5-1.3,1.2-1.3s1.2,0.6,1.2,1.3v0.1c0.3-0.1,0.4-0.4,0.4-0.9c-0.2-2.4-2.7-8.6-2.7-11.2H319
				L307.9,53h2.8c4.1-0.2,4.9-6.8,4.9-8.5C315.6,42.1,318,42.7,318,42.7z"/>
			<path class="st6" d="M343.7,54.9H335c0,0-0.3-0.8,0.6-0.8c0.9,0,0.3-3.9,0.2-4.1l-0.6-3.3c-6-2-7.7,1.7-8.1,3.5
				c-0.2,0.8-0.7,4,0,4c0.9,0,0.6,0.8,0.6,0.8h-6.8c0,0,0.1-0.8,0.9-0.8c0.9,0,1.9-3.9,1.9-4.1l5.6-24.4c0.1-0.2,0.9-4.1,0-4.1
				c-0.8,0-0.5-0.8-0.5-0.8h8.9c0,0,0.3,0.8-0.6,0.8c-0.9,0-0.2,4-0.2,4.1l3.3,18.4c1.3-0.9-0.1-2.5-0.1-2.5c3.4,0,4.2,4.9,0.6,5.9
				l0.5,2.7c0,0.1,0.7,4.1,1.7,4.1C343.6,54.1,343.7,54.9,343.7,54.9z M334.7,44.2L332,28.7L328.3,45
				C330.9,43.7,333,43.8,334.7,44.2z"/>
			<path class="st6" d="M368.3,54.9h-8.7c0,0-0.6-0.8,0.2-0.8c0.9,0-1.4-3.9-1.6-4.1c-2.2-3.7-3.3-5.3-5-5.3V50c0,0.2,0.1,4.1,1,4.1
				c0.9,0,0.7,0.8,0.7,0.8h-8.8c0,0-0.1-0.8,0.7-0.8c0.9,0,0.9-3.8,0.9-4.1V25.6c0-0.3-0.1-4.1-0.9-4.1c-0.9,0-0.7-0.8-0.7-0.8h9.6
				c6.6,0,12,5.4,12,12.1c0,5.2-3.2,9.7-7.7,11.4l3.6,5.8c0,0,2.6,4.1,3.5,4.1C367.9,54.1,368.3,54.9,368.3,54.9z M362.5,32.7
				c0-5.6-3.9-10.1-8.8-10.1c-0.2,0-0.3,0-0.5,0.1v20.1h0.5C358.4,42.8,362.5,38.3,362.5,32.7z"/>
			<path class="st6" d="M391,29v17.7c0,4.6-4,8.3-9,8.3h-11c0,0-0.1-0.8,0.7-0.8c0.9,0,0.9-3.9,0.9-4.1V25.6c0-0.2-0.1-4.1-0.9-4.1
				c-0.9,0-0.7-0.8-0.7-0.8h11C387,20.7,391,24.4,391,29z M385.6,29c0-3.5-2.8-6.4-6.3-6.4c-0.5,0-0.9,0.1-1.3,0.2v30.2
				c0.4,0.1,0.9,0.2,1.3,0.2c3.5,0,6.3-2.9,6.3-6.4V29z"/>
		</g>
		<g id="Lower_Color_3_">
			<path class="st1" d="M385.6,42.8v3.8c0,3.5-2.8,6.4-6.3,6.4c-0.5,0-0.9-0.1-1.3-0.2V42.8h-5.4V50c0,0.2-0.1,4.1-0.9,4.1
				c-0.9,0-0.7,0.8-0.7,0.8h11c5,0,9-3.7,9-8.3v-3.8H385.6z"/>
			<path class="st1" d="M367.1,54.1c-0.9,0-3.5-4.1-3.5-4.1l-3.6-5.8c0.9-0.4,1.8-0.8,2.6-1.4h-8.9h-0.5h-5.4V50
				c0,0.3-0.1,4.1-0.9,4.1c-0.9,0-0.7,0.8-0.7,0.8h8.8c0,0,0.1-0.8-0.7-0.8s-1-3.9-1-4.1v-5.3c1.7,0,2.8,1.7,5,5.3
				c0.2,0.2,2.5,4.1,1.6,4.1c-0.8,0-0.2,0.8-0.2,0.8h8.7C368.3,54.9,367.9,54.1,367.1,54.1z"/>
			<path class="st1" d="M342.8,54.1c-0.9,0-1.7-4-1.7-4.1l-0.5-2.7c2.3-0.7,2.8-3,1.8-4.5h-1.9c0,0.4-0.1,0.8-0.5,1.1l-0.2-1.1h-5.4
				l0.2,1.3c-1.8-0.3-3.8-0.5-6.5,0.9l0.5-2.2h-3.4l-1.7,7.2c-0.1,0.2-1,4.1-1.9,4.1c-0.8,0-0.9,0.8-0.9,0.8h6.8
				c0,0,0.3-0.8-0.6-0.8c-0.7,0-0.2-3.1,0-4c0.4-1.8,2.1-5.5,8.1-3.5l0.6,3.3c0.1,0.2,0.6,4.1-0.2,4.1c-0.9,0-0.6,0.8-0.6,0.8h8.7
				C343.7,54.9,343.6,54.1,342.8,54.1z"/>
			<path class="st1" d="M318,42.8h-1.6c-0.5,0.2-0.9,0.7-0.9,1.6c0,1.7-0.8,8.4-4.9,8.5h-2.8l3.5-10.1H306l-4.2,12.1H318
				C316.3,47.9,317.7,43.5,318,42.8z"/>
			<path class="st1" d="M298.7,54.1c-0.9,0-1-4.1-1-4.1v-7.2h-5.4V50c0,0.2-0.1,4.1-0.9,4.1c-0.9,0-0.7,0.8-0.7,0.8h8.8
				C299.5,54.9,299.6,54.1,298.7,54.1z"/>
			<g>
				<path class="st1" d="M265.6,57c-0.9,0-0.1-3.9,0-4.1l1.7-10.1h-3.2c-0.7,4-1.2,6.9-1.2,6.9l-1.1-6.9h-5.4l1.6,10.1
					c0.1,0.1,0.7,4.1-0.2,4.1c-0.8,0-0.6,0.8-0.6,0.8h8.9C266.2,57.8,266.4,57,265.6,57z"/>
				<path class="st1" d="M279.8,57c-0.9,0-0.1-3.9,0-4.1l2.1-10.1h-3.4l-1.4,6.9l-1-6.9h-5l2.1,15h7.3C280.3,57.8,280.6,57,279.8,57
					z"/>
			</g>
		</g>
		<g id="Half_Color_3_">
			<g>
				<path class="st1" d="M279.8,57c-0.9,0-0.1-3.9,0-4.1l3.3-15.9h-3.4L277,49.8L275.2,37h-5l2.9,20.8h7.3
					C280.3,57.8,280.6,57,279.8,57z"/>
				<path class="st1" d="M265.6,57c-0.9,0-0.1-3.9,0-4.1l2.7-15.9h-3.1c-1.2,6.5-2.3,12.8-2.3,12.8l-2-12.8h-5.4l2.5,15.9
					c0.1,0.1,0.7,4.1-0.2,4.1c-0.8,0-0.6,0.8-0.6,0.8h8.9C266.2,57.8,266.4,57,265.6,57z"/>
			</g>
			<path class="st1" d="M298.7,54.1c-0.9,0-1-4.1-1-4.1V37h-5.4v13c0,0.2-0.1,4.1-0.9,4.1c-0.9,0-0.7,0.8-0.7,0.8h8.8
				C299.5,54.9,299.6,54.1,298.7,54.1z"/>
			<path class="st1" d="M315.6,44.4c0,1.7-0.8,8.4-4.9,8.5h-2.8l5.5-16H308l-6.2,17.9H318c-1.9-7.7,0-12.2,0-12.2
				S315.6,42.1,315.6,44.4z"/>
			<path class="st1" d="M385.6,37v9.7c0,3.5-2.8,6.4-6.3,6.4c-0.5,0-0.9-0.1-1.3-0.2V37h-5.4v13c0,0.2-0.1,4.1-0.9,4.1
				c-0.9,0-0.7,0.8-0.7,0.8h11c5,0,9-3.7,9-8.3V37H385.6z"/>
			<path class="st1" d="M342.8,54.1c-0.9,0-1.7-4-1.7-4.1l-0.5-2.7c3.5-1,2.7-5.9-0.6-5.9c0,0,1.3,1.5,0.1,2.5l-1.2-7h-5.4l1.3,7.2
				c-1.8-0.3-3.8-0.5-6.5,0.9l1.8-8h-3.4l-3,13c-0.1,0.2-1,4.1-1.9,4.1c-0.8,0-0.9,0.8-0.9,0.8h6.8c0,0,0.3-0.8-0.6-0.8
				c-0.7,0-0.2-3.1,0-4c0.4-1.8,2.1-5.5,8.1-3.5l0.6,3.3c0.1,0.2,0.6,4.1-0.2,4.1c-0.9,0-0.6,0.8-0.6,0.8h8.7
				C343.7,54.9,343.6,54.1,342.8,54.1z"/>
			<path class="st1" d="M367.1,54.1c-0.9,0-3.5-4.1-3.5-4.1l-3.6-5.8c3.3-1.3,5.8-3.9,7-7.2h-5.4c-1.4,3.5-4.5,5.8-7.9,5.8h-0.5V37
				h-5.4v13c0,0.3-0.1,4.1-0.9,4.1c-0.9,0-0.7,0.8-0.7,0.8h8.8c0,0,0.1-0.8-0.7-0.8s-1-3.9-1-4.1v-5.3c1.7,0,2.8,1.7,5,5.3
				c0.2,0.2,2.5,4.1,1.6,4.1c-0.8,0-0.2,0.8-0.2,0.8h8.7C368.3,54.9,367.9,54.1,367.1,54.1z"/>
		</g>
		<g id="Outline_3_">
			<path class="st12" d="M288.9,17.8c0,0-0.1,0.8-1,0.8s-1.8,3.9-1.9,4.1l-6.3,30.2c-0.1,0.2-0.9,4.1,0,4.1c0.8,0,0.5,0.8,0.5,0.8
				h-7.3L269.3,31l-3.7,21.9c-0.1,0.2-0.9,4.1,0,4.1c0.8,0,0.5,0.8,0.5,0.8h-8.9c0,0-0.2-0.8,0.6-0.8c0.9,0,0.3-4,0.2-4.1l-4.8-30.2
				c-0.1-0.1-0.8-4.1-1.7-4.1c-0.8,0-0.9-0.8-0.9-0.8h8.8c0,0,0.2,0.8-0.6,0.8c-0.9,0-0.3,3.9-0.2,4.1l4.2,27.1
				c0,0,4.9-27.1,4.9-27.2c-0.2-0.8-0.9-3.9-1.6-3.9c-0.9,0-0.9-0.8-0.9-0.8h7.1l4.6,32l5.6-27.1c0.1-0.1,0.9-4.1,0-4.1
				c-0.8,0-0.5-0.8-0.5-0.8H288.9z"/>
			<path class="st12" d="M299.5,54.9h-8.8c0,0-0.1-0.8,0.7-0.8c0.9,0,0.9-3.9,0.9-4.1V25.6c0-0.2-0.1-4.1-0.9-4.1
				c-0.9,0-0.7-0.8-0.7-0.8h8.8c0,0,0.1,0.8-0.7,0.8c-0.9,0-1,4.2-1,4.2V50c0,0,0.1,4.1,1,4.1C299.6,54.1,299.5,54.9,299.5,54.9z"/>
			<path class="st12" d="M318,42.7c0,0-1.9,4.5,0,12.2h-16.2l11.2-32.3H309c-5.2,0.1,0.4,8.3-2.8,11.4c-0.9,0.8-1.9,0.7-2.7,0.5
				c-0.8-0.3-1.5-1-1.5-1.9c0-0.7,0.5-1.3,1.2-1.3s1.2,0.6,1.2,1.3v0.1c0.3-0.1,0.4-0.4,0.4-0.9c-0.2-2.4-2.7-8.6-2.7-11.2H319
				L307.9,53h2.8c4.1-0.2,4.9-6.8,4.9-8.5C315.6,42.1,318,42.7,318,42.7z"/>
			<path class="st12" d="M343.7,54.9H335c0,0-0.3-0.8,0.6-0.8c0.9,0,0.3-3.9,0.2-4.1l-0.6-3.3c-6-2-7.7,1.7-8.1,3.5
				c-0.2,0.8-0.7,4,0,4c0.9,0,0.6,0.8,0.6,0.8h-6.8c0,0,0.1-0.8,0.9-0.8c0.9,0,1.9-3.9,1.9-4.1l5.6-24.4c0.1-0.2,0.9-4.1,0-4.1
				c-0.8,0-0.5-0.8-0.5-0.8h8.9c0,0,0.3,0.8-0.6,0.8c-0.9,0-0.2,4-0.2,4.1l3.3,18.4c1.3-0.9-0.1-2.5-0.1-2.5c3.4,0,4.2,4.9,0.6,5.9
				l0.5,2.7c0,0.1,0.7,4.1,1.7,4.1C343.6,54.1,343.7,54.9,343.7,54.9z M334.7,44.2L332,28.7L328.3,45
				C330.9,43.7,333,43.8,334.7,44.2z"/>
			<path class="st12" d="M368.3,54.9h-8.7c0,0-0.6-0.8,0.2-0.8c0.9,0-1.4-3.9-1.6-4.1c-2.2-3.7-3.3-5.3-5-5.3V50
				c0,0.2,0.1,4.1,1,4.1c0.9,0,0.7,0.8,0.7,0.8h-8.8c0,0-0.1-0.8,0.7-0.8c0.9,0,0.9-3.8,0.9-4.1V25.6c0-0.3-0.1-4.1-0.9-4.1
				c-0.9,0-0.7-0.8-0.7-0.8h9.6c6.6,0,12,5.4,12,12.1c0,5.2-3.2,9.7-7.7,11.4l3.6,5.8c0,0,2.6,4.1,3.5,4.1
				C367.9,54.1,368.3,54.9,368.3,54.9z M362.5,32.7c0-5.6-3.9-10.1-8.8-10.1c-0.2,0-0.3,0-0.5,0.1v20.1h0.5
				C358.4,42.8,362.5,38.3,362.5,32.7z"/>
			<path class="st12" d="M391,29v17.7c0,4.6-4,8.3-9,8.3h-11c0,0-0.1-0.8,0.7-0.8c0.9,0,0.9-3.9,0.9-4.1V25.6c0-0.2-0.1-4.1-0.9-4.1
				c-0.9,0-0.7-0.8-0.7-0.8h11C387,20.7,391,24.4,391,29z M385.6,29c0-3.5-2.8-6.4-6.3-6.4c-0.5,0-0.9,0.1-1.3,0.2v30.2
				c0.4,0.1,0.9,0.2,1.3,0.2c3.5,0,6.3-2.9,6.3-6.4V29z"/>
		</g>
	</g>
	<g id="Release_3_">
		<g id="Base_2_">
			<path class="st6" d="M120.6,62.9c0,0.6-0.3,1.3-1.1,1.8c-1.3,0.8-5.3,1.2-7.8-2c-3.1-4-8.9-17-12-17.9v8.1c0,0.3,0.1,4.1,1,4.1
				c0.9,0,0.7,0.8,0.7,0.8h-8.8c0,0-0.1-0.8,0.7-0.8c0.9,0,0.9-3.8,0.9-4.1V22.7c0-0.3-0.1-4.1-0.9-4.1c-0.9,0-0.7-0.8-0.7-0.8h7
				c8.6,0,15.2,5.2,15.2,14c0,7.3-4.6,12-10.3,13c6.8,2.6,9.6,18.1,13.5,18.1v-0.1c0-0.7,0.5-1.3,1.2-1.3
				C120,61.6,120.6,62.2,120.6,62.9z M109.8,31.6c0-8-5.4-11.5-10-11.6v22.8h0.5C104.9,42.8,109.8,38.3,109.8,31.6z"/>
			<path class="st6" d="M134.7,54.9h-17.3c0,0-0.1-0.8,0.7-0.8c0.9,0,0.9-3.8,0.9-4.1V25.6c0-0.3-0.1-4.1-0.9-4.1
				c-0.9,0-0.7-0.8-0.7-0.8h16.9c0,2.6-2.5,8.8-2.7,11.2c-0.1,0.4,0.1,0.7,0.3,0.9v-0.1c0-0.7,0.6-1.3,1.3-1.3
				c0.6,0,1.2,0.6,1.2,1.3c0,0.7-0.6,1.5-1.5,1.9c-0.7,0.3-1.9,0.3-2.7-0.5c-3.3-3,2.3-11.3-2.8-11.4h-3v19.2c0.5,0,4.1-0.1,4.1-1
				c0-0.8,0.8-0.7,0.8-0.7v5.3c0,0-0.8,0.1-0.8-0.7c0-0.9-3.6-1-4.1-1V53h2.9c4.1-0.2,4.9-6.8,4.9-8.5c0-2.3,2.5-1.7,2.5-1.7
				S132.8,47.3,134.7,54.9z"/>
			<path class="st6" d="M154.6,54.9h-17.3c0,0-0.1-0.8,0.7-0.8c0.9,0,0.9-4.1,0.9-4.1V25.6c0,0,0-4.2-0.9-4.2
				c-0.9,0-0.7-0.8-0.7-0.8h8.8c0,0,0.1,0.8-0.7,0.8s-0.9,3.4-1,4.1V53h2.9c4.1-0.2,4.9-6.8,4.9-8.5c0-2.3,2.5-1.7,2.5-1.7
				S152.8,47.3,154.6,54.9z"/>
			<path class="st6" d="M173.7,54.9h-17.3c0,0-0.1-0.8,0.7-0.8c0.9,0,0.9-3.8,0.9-4.1V25.6c0-0.3-0.1-4.1-0.9-4.1
				c-0.9,0-0.7-0.8-0.7-0.8h16.9c0,2.6-2.5,8.8-2.7,11.2c-0.1,0.4,0.1,0.7,0.3,0.9v-0.1c0-0.7,0.6-1.3,1.3-1.3
				c0.6,0,1.2,0.6,1.2,1.3c0,0.7-0.6,1.5-1.5,1.9c-0.7,0.3-1.9,0.3-2.7-0.5c-3.3-3,2.3-11.3-2.8-11.4h-3v19.2c0.5,0,4.1-0.1,4.1-1
				c0-0.8,0.8-0.7,0.8-0.7v5.3c0,0-0.8,0.1-0.8-0.7c0-0.9-3.6-1-4.1-1V53h2.9c4.1-0.2,4.9-6.8,4.9-8.5c0-2.3,2.5-1.7,2.5-1.7
				S171.8,47.3,173.7,54.9z"/>
			<path class="st6" d="M198.5,54.9h-8.7c0,0-0.3-0.8,0.6-0.8c0.9,0,0.3-3.9,0.2-4.1l-0.6-3.3c-6-2-7.7,1.7-8.1,3.5
				c-0.2,0.8-0.7,3.9,0,3.9c0.9,0,0.6,0.8,0.6,0.8h-6.8c0,0,0.1-0.8,0.9-0.8c0.9,0,1.9-3.9,1.9-4.1l5.6-24.4c0.1-0.2,0.9-4.1,0-4.1
				c-0.8,0-0.5-0.8-0.5-0.8h8.9c0,0,0.3,0.8-0.6,0.8c-0.9,0-0.2,4-0.2,4.1l3.3,18.4c1.3-0.9-0.1-2.5-0.1-2.5c3.4,0,4.2,4.9,0.6,5.9
				L196,50c0,0.1,0.7,4.1,1.7,4.1C198.5,54.1,198.5,54.9,198.5,54.9z M189.5,44.2l-2.7-15.4L183.1,45
				C185.8,43.7,187.8,43.8,189.5,44.2z"/>
			<path class="st6" d="M217.9,46.3c0,4.6-2.7,8.8-9.4,8.8c-4.3,0-7.8-3.1-7.8-7.9c0-6.5,6.5-5.7,6.5-2.5c-2.7,0-3,7.8,1.3,7.8
				c2.1,0,4.1-2.9,4.1-6.3c0-9.7-11.4-8.9-11.4-17.8c0-5.5,3.6-7.7,7.5-8.3c4-0.6,8.1,0.5,8.1,0.5c0,2.6-2.5,8.8-2.7,11.2
				c-0.1,0.4,0.1,0.7,0.4,0.9c-0.1-0.1-0.1-0.1-0.1-0.1c0-0.7,0.6-1.3,1.3-1.3s1.2,0.6,1.2,1.3c0,0.8-0.6,1.5-1.5,1.9
				c-0.7,0.3-1.8,0.3-2.7-0.5c-3.3-3,3-11.4-3.1-11.4c-2.5,0-3.1,2.4-3.1,5.9C206.5,35,217.9,36.2,217.9,46.3z"/>
			<path class="st6" d="M237.6,54.9h-17.3c0,0-0.1-0.8,0.7-0.8c0.9,0,0.9-3.8,0.9-4.1V25.6c0-0.3-0.1-4.1-0.9-4.1
				c-0.9,0-0.7-0.8-0.7-0.8h16.9c0,2.6-2.5,8.8-2.7,11.2c-0.1,0.4,0.1,0.7,0.3,0.9v-0.1c0-0.7,0.6-1.3,1.3-1.3
				c0.6,0,1.2,0.6,1.2,1.3c0,0.7-0.6,1.5-1.5,1.9c-0.7,0.3-1.9,0.3-2.7-0.5c-3.3-3,2.3-11.3-2.8-11.4h-3v19.2c0.5,0,4.1-0.1,4.1-1
				c0-0.8,0.8-0.7,0.8-0.7v5.3c0,0-0.8,0.1-0.8-0.7c0-0.9-3.6-1-4.1-1V53h2.9c4.1-0.2,4.9-6.8,4.9-8.5c0-2.3,2.5-1.7,2.5-1.7
				S235.8,47.3,237.6,54.9z"/>
		</g>
		<g id="Lower_Color_2_">
			<path class="st1" d="M237.6,42.8H236c-0.4,0.2-0.8,0.7-0.8,1.6c0,1.7-0.8,8.4-4.9,8.5h-2.9v-9.1c0.5,0,4.1,0.1,4.1,1
				c0,0.8,0.8,0.7,0.8,0.7v-2.7H222V50c0,0.3-0.1,4.1-0.9,4.1c-0.9,0-0.7,0.8-0.7,0.8h17.3C235.9,48,237.3,43.6,237.6,42.8z"/>
			<path class="st1" d="M211.9,42.8c0.4,1,0.6,2.1,0.6,3.5c0,3.4-1.9,6.3-4.1,6.3c-4.3,0-4-7.8-1.3-7.8c0-0.8-0.4-1.5-1-1.9h-3.6
				c-1,0.7-1.9,2.1-1.9,4.4c0,4.7,3.5,7.9,7.8,7.9c6.7,0,9.4-4.2,9.4-8.8c0-1.3-0.2-2.4-0.5-3.5H211.9z"/>
			<path class="st1" d="M197.7,54.1c-0.9,0-1.7-4-1.7-4.1l-0.5-2.7c2.3-0.7,2.8-3,1.8-4.5h-1.9c0,0.4-0.1,0.8-0.5,1.1l-0.2-1.1h-5.4
				l0.2,1.3c-1.8-0.3-3.8-0.5-6.5,0.9l0.5-2.2h-3.4l-1.6,7.2c-0.1,0.2-1,4.1-1.9,4.1c-0.8,0-0.9,0.8-0.9,0.8h6.8
				c0,0,0.3-0.8-0.6-0.8c-0.7,0-0.2-3.1,0-3.9c0.4-1.8,2.1-5.5,8.1-3.5l0.6,3.3c0.1,0.2,0.6,4.1-0.2,4.1c-0.9,0-0.6,0.8-0.6,0.8h8.7
				C198.5,54.9,198.5,54.1,197.7,54.1z"/>
			<path class="st1" d="M173.6,42.8H172c-0.4,0.2-0.8,0.7-0.8,1.6c0,1.7-0.8,8.4-4.9,8.5h-2.9v-9.1c0.5,0,4.1,0.1,4.1,1
				c0,0.8,0.8,0.7,0.8,0.7v-2.7h-10.3V50c0,0.3-0.1,4.1-0.9,4.1c-0.9,0-0.7,0.8-0.7,0.8h17.3C172,48,173.4,43.6,173.6,42.8z"/>
			<path class="st1" d="M154.6,42.8H153c-0.4,0.2-0.8,0.7-0.8,1.6c0,1.7-0.8,8.4-4.9,8.5h-2.9V42.8H139V50c0,0,0,4.1-0.9,4.1
				c-0.9,0-0.7,0.8-0.7,0.8h17.3C152.9,48,154.3,43.6,154.6,42.8z"/>
			<path class="st1" d="M134.6,42.8H133c-0.4,0.2-0.8,0.7-0.8,1.6c0,1.7-0.8,8.4-4.9,8.5h-2.9v-9.1c0.5,0,4.1,0.1,4.1,1
				c0,0.8,0.8,0.7,0.8,0.7v-2.7H119V50c0,0.3-0.1,4.1-0.9,4.1c-0.9,0-0.7,0.8-0.7,0.8h17.3C133,48,134.4,43.6,134.6,42.8z"/>
			<path class="st1" d="M119.4,61.6c-0.7,0-1.2,0.6-1.2,1.3V63c-3.9,0-6.7-15.6-13.5-18.1c1.7-0.3,3.4-1,4.8-2H94.4v10.1
				c0,0.3-0.1,4.1-0.9,4.1c-0.9,0-0.7,0.8-0.7,0.8h8.8c0,0,0.1-0.8-0.7-0.8c-0.9,0-1-3.8-1-4.1v-8.1c3.1,0.9,8.9,13.9,12,17.9
				c2.5,3.2,6.5,2.8,7.8,2c0.8-0.5,1.1-1.2,1.1-1.8C120.6,62.2,120,61.6,119.4,61.6z"/>
		</g>
		<g id="Half_Color_2_">
			<path class="st1" d="M235.2,44.4c0,1.7-0.8,8.4-4.9,8.5h-2.9v-9.1c0.5,0,4.1,0.1,4.1,1c0,0.8,0.8,0.7,0.8,0.7v-5.3
				c0,0-0.8-0.1-0.8,0.7c0,0.9-3.6,1-4.1,1v-4.5H222V50c0,0.3-0.1,4.1-0.9,4.1c-0.9,0-0.7,0.8-0.7,0.8h17.3c-1.9-7.7,0-12.2,0-12.2
				S235.2,42.1,235.2,44.4z"/>
			<path class="st1" d="M213.7,37.4h-6.5c2.7,2.1,5.3,4.3,5.3,8.9c0,3.4-1.9,6.3-4.1,6.3c-4.3,0-4-7.8-1.3-7.8
				c0-3.3-6.5-4.1-6.5,2.5c0,4.7,3.5,7.9,7.8,7.9c6.7,0,9.4-4.2,9.4-8.8C217.9,42.1,216,39.5,213.7,37.4z"/>
			<path class="st1" d="M197.7,54.1c-0.9,0-1.7-4-1.7-4.1l-0.5-2.7c3.5-1,2.7-5.9-0.6-5.9c0,0,1.3,1.5,0.1,2.5l-1.2-6.6h-5.4
				l1.2,6.8c-1.8-0.3-3.8-0.5-6.5,0.9l1.8-7.6h-3.4L178.5,50c-0.1,0.2-1,4.1-1.9,4.1c-0.8,0-0.9,0.8-0.9,0.8h6.8
				c0,0,0.3-0.8-0.6-0.8c-0.7,0-0.2-3.1,0-3.9c0.4-1.8,2.1-5.5,8.1-3.5l0.6,3.3c0.1,0.2,0.6,4.1-0.2,4.1c-0.9,0-0.6,0.8-0.6,0.8h8.7
				C198.5,54.9,198.5,54.1,197.7,54.1z"/>
			<path class="st1" d="M171.2,44.4c0,1.7-0.8,8.4-4.9,8.5h-2.9v-9.1c0.5,0,4.1,0.1,4.1,1c0,0.8,0.8,0.7,0.8,0.7v-5.3
				c0,0-0.8-0.1-0.8,0.7c0,0.9-3.6,1-4.1,1v-4.5h-5.4V50c0,0.3-0.1,4.1-0.9,4.1c-0.9,0-0.7,0.8-0.7,0.8h17.3c-1.9-7.7,0-12.2,0-12.2
				S171.2,42.1,171.2,44.4z"/>
			<path class="st1" d="M152.2,44.4c0,1.7-0.8,8.4-4.9,8.5h-2.9V37.4H139V50c0,0,0,4.1-0.9,4.1c-0.9,0-0.7,0.8-0.7,0.8h17.3
				c-1.9-7.7,0-12.2,0-12.2S152.2,42.1,152.2,44.4z"/>
			<path class="st1" d="M132.2,44.4c0,1.7-0.8,8.4-4.9,8.5h-2.9v-9.1c0.5,0,4.1,0.1,4.1,1c0,0.8,0.8,0.7,0.8,0.7v-5.3
				c0,0-0.8-0.1-0.8,0.7c0,0.9-3.6,1-4.1,1v-4.5H119V50c0,0.3-0.1,4.1-0.9,4.1c-0.9,0-0.7,0.8-0.7,0.8h17.3c-1.9-7.7,0-12.2,0-12.2
				S132.2,42.1,132.2,44.4z"/>
			<path class="st1" d="M119.4,61.6c-0.7,0-1.2,0.6-1.2,1.3V63c-3.9,0-6.7-15.6-13.5-18.1c4-0.7,7.6-3.3,9.2-7.4h-5.4
				c-1.8,3.4-5,5.5-8.2,5.5h-0.5v-5.5h-5.4v15.5c0,0.3-0.1,4.1-0.9,4.1c-0.9,0-0.7,0.8-0.7,0.8h8.8c0,0,0.1-0.8-0.7-0.8
				c-0.9,0-1-3.8-1-4.1v-8.1c3.1,0.9,8.9,13.9,12,17.9c2.5,3.2,6.5,2.8,7.8,2c0.8-0.5,1.1-1.2,1.1-1.8
				C120.6,62.2,120,61.6,119.4,61.6z"/>
		</g>
		<g id="Outline_2_">
			<path class="st12" d="M120.6,62.9c0,0.6-0.3,1.3-1.1,1.8c-1.3,0.8-5.3,1.2-7.8-2c-3.1-4-8.9-17-12-17.9v8.1c0,0.3,0.1,4.1,1,4.1
				c0.9,0,0.7,0.8,0.7,0.8h-8.8c0,0-0.1-0.8,0.7-0.8c0.9,0,0.9-3.8,0.9-4.1V22.7c0-0.3-0.1-4.1-0.9-4.1c-0.9,0-0.7-0.8-0.7-0.8h7
				c8.6,0,15.2,5.2,15.2,14c0,7.3-4.6,12-10.3,13c6.8,2.6,9.6,18.1,13.5,18.1v-0.1c0-0.7,0.5-1.3,1.2-1.3
				C120,61.6,120.6,62.2,120.6,62.9z M109.8,31.6c0-8-5.4-11.5-10-11.6v22.8h0.5C104.9,42.8,109.8,38.3,109.8,31.6z"/>
			<path class="st12" d="M134.7,54.9h-17.3c0,0-0.1-0.8,0.7-0.8c0.9,0,0.9-3.8,0.9-4.1V25.6c0-0.3-0.1-4.1-0.9-4.1
				c-0.9,0-0.7-0.8-0.7-0.8h16.9c0,2.6-2.5,8.8-2.7,11.2c-0.1,0.4,0.1,0.7,0.3,0.9v-0.1c0-0.7,0.6-1.3,1.3-1.3
				c0.6,0,1.2,0.6,1.2,1.3c0,0.7-0.6,1.5-1.5,1.9c-0.7,0.3-1.9,0.3-2.7-0.5c-3.3-3,2.3-11.3-2.8-11.4h-3v19.2c0.5,0,4.1-0.1,4.1-1
				c0-0.8,0.8-0.7,0.8-0.7v5.3c0,0-0.8,0.1-0.8-0.7c0-0.9-3.6-1-4.1-1V53h2.9c4.1-0.2,4.9-6.8,4.9-8.5c0-2.3,2.5-1.7,2.5-1.7
				S132.8,47.3,134.7,54.9z"/>
			<path class="st12" d="M154.6,54.9h-17.3c0,0-0.1-0.8,0.7-0.8c0.9,0,0.9-4.1,0.9-4.1V25.6c0,0,0-4.2-0.9-4.2
				c-0.9,0-0.7-0.8-0.7-0.8h8.8c0,0,0.1,0.8-0.7,0.8s-0.9,3.4-1,4.1V53h2.9c4.1-0.2,4.9-6.8,4.9-8.5c0-2.3,2.5-1.7,2.5-1.7
				S152.8,47.3,154.6,54.9z"/>
			<path class="st12" d="M173.7,54.9h-17.3c0,0-0.1-0.8,0.7-0.8c0.9,0,0.9-3.8,0.9-4.1V25.6c0-0.3-0.1-4.1-0.9-4.1
				c-0.9,0-0.7-0.8-0.7-0.8h16.9c0,2.6-2.5,8.8-2.7,11.2c-0.1,0.4,0.1,0.7,0.3,0.9v-0.1c0-0.7,0.6-1.3,1.3-1.3
				c0.6,0,1.2,0.6,1.2,1.3c0,0.7-0.6,1.5-1.5,1.9c-0.7,0.3-1.9,0.3-2.7-0.5c-3.3-3,2.3-11.3-2.8-11.4h-3v19.2c0.5,0,4.1-0.1,4.1-1
				c0-0.8,0.8-0.7,0.8-0.7v5.3c0,0-0.8,0.1-0.8-0.7c0-0.9-3.6-1-4.1-1V53h2.9c4.1-0.2,4.9-6.8,4.9-8.5c0-2.3,2.5-1.7,2.5-1.7
				S171.8,47.3,173.7,54.9z"/>
			<path class="st12" d="M198.5,54.9h-8.7c0,0-0.3-0.8,0.6-0.8c0.9,0,0.3-3.9,0.2-4.1l-0.6-3.3c-6-2-7.7,1.7-8.1,3.5
				c-0.2,0.8-0.7,3.9,0,3.9c0.9,0,0.6,0.8,0.6,0.8h-6.8c0,0,0.1-0.8,0.9-0.8c0.9,0,1.9-3.9,1.9-4.1l5.6-24.4c0.1-0.2,0.9-4.1,0-4.1
				c-0.8,0-0.5-0.8-0.5-0.8h8.9c0,0,0.3,0.8-0.6,0.8c-0.9,0-0.2,4-0.2,4.1l3.3,18.4c1.3-0.9-0.1-2.5-0.1-2.5c3.4,0,4.2,4.9,0.6,5.9
				L196,50c0,0.1,0.7,4.1,1.7,4.1C198.5,54.1,198.5,54.9,198.5,54.9z M189.5,44.2l-2.7-15.4L183.1,45
				C185.8,43.7,187.8,43.8,189.5,44.2z"/>
			<path class="st12" d="M217.9,46.3c0,4.6-2.7,8.8-9.4,8.8c-4.3,0-7.8-3.1-7.8-7.9c0-6.5,6.5-5.7,6.5-2.5c-2.7,0-3,7.8,1.3,7.8
				c2.1,0,4.1-2.9,4.1-6.3c0-9.7-11.4-8.9-11.4-17.8c0-5.5,3.6-7.7,7.5-8.3c4-0.6,8.1,0.5,8.1,0.5c0,2.6-2.5,8.8-2.7,11.2
				c-0.1,0.4,0.1,0.7,0.4,0.9c-0.1-0.1-0.1-0.1-0.1-0.1c0-0.7,0.6-1.3,1.3-1.3s1.2,0.6,1.2,1.3c0,0.8-0.6,1.5-1.5,1.9
				c-0.7,0.3-1.8,0.3-2.7-0.5c-3.3-3,3-11.4-3.1-11.4c-2.5,0-3.1,2.4-3.1,5.9C206.5,35,217.9,36.2,217.9,46.3z"/>
			<path class="st12" d="M237.6,54.9h-17.3c0,0-0.1-0.8,0.7-0.8c0.9,0,0.9-3.8,0.9-4.1V25.6c0-0.3-0.1-4.1-0.9-4.1
				c-0.9,0-0.7-0.8-0.7-0.8h16.9c0,2.6-2.5,8.8-2.7,11.2c-0.1,0.4,0.1,0.7,0.3,0.9v-0.1c0-0.7,0.6-1.3,1.3-1.3
				c0.6,0,1.2,0.6,1.2,1.3c0,0.7-0.6,1.5-1.5,1.9c-0.7,0.3-1.9,0.3-2.7-0.5c-3.3-3,2.3-11.3-2.8-11.4h-3v19.2c0.5,0,4.1-0.1,4.1-1
				c0-0.8,0.8-0.7,0.8-0.7v5.3c0,0-0.8,0.1-0.8-0.7c0-0.9-3.6-1-4.1-1V53h2.9c4.1-0.2,4.9-6.8,4.9-8.5c0-2.3,2.5-1.7,2.5-1.7
				S235.8,47.3,237.6,54.9z"/>
		</g>
	</g>
	
		<use xlink:href="#rw-logo"  width="56.1" height="57.9" id="XMLID_10_" x="-28.1" y="-29" transform="matrix(1.0997 0 0 -1.0997 35.1443 37.5)" style="overflow:visible;"/>
</g>
</svg>
