<svg xmlns="http://www.w3.org/2000/svg" viewBox="0 0 355.48 75"><defs><style>.e25486f9-a26f-490a-9e22-c3dbc4d64a29{opacity:0.2;}.a03c9f40-2504-4a67-a642-14582193a306{fill:#84c22d;}.f844fb73-f0c3-4949-92ff-c2c450fad972{fill:#9ee835;}.aa1730d5-df40-4e5f-8dc9-0b71bad9b4a9{fill:#403f35;stroke-width:0.5px;}.a6064dca-2dab-4759-8a65-9277f8312808,.aa1730d5-df40-4e5f-8dc9-0b71bad9b4a9{stroke:#403f35;stroke-miterlimit:10;}.a6064dca-2dab-4759-8a65-9277f8312808{fill:none;}</style></defs><g id="ad865510-c92f-4be1-a6ac-b240cf888464" data-name="Layer 14"><g id="edc56f3d-e61e-497a-bc5e-ff4b817f5d7a" data-name="Left Lightning"><path class="a03c9f40-2504-4a67-a642-14582193a306" d="M17.33,22.51l-8.09,2A28.72,28.72,0,0,0,6.87,34l2.89-3s-1.07,6.83,1.66,12.56L13,40.77s3.25,7.57,9.65,9.88c0,0-2.39-2.42-3.75-8.79l-1.16,1s-1.16-2.6.95-10.69l-3.51,2.44A19.07,19.07,0,0,1,17.33,22.51Z"/><path class="f844fb73-f0c3-4949-92ff-c2c450fad972" d="M17.33,22.51l-8.09,2A28.72,28.72,0,0,0,6.87,34l2.89-3s-1.07,6.83,1.66,12.56C11.42,43.54,8.84,32.9,17.33,22.51Z"/><path class="aa1730d5-df40-4e5f-8dc9-0b71bad9b4a9" d="M23.64,51.29l-1.09-.39c-5.5-2-8.74-7.85-9.58-9.56L11.4,44.12l-.22-.47c-2.19-4.59-2-9.93-1.77-11.91l-2.84,3,0-.71A28.91,28.91,0,0,1,9,24.43l.05-.11,8.79-2.21-.27.53a19.36,19.36,0,0,0-2.21,11.49l3.75-2.61-.18.7c-1.47,5.64-1.38,8.91-1.07,10.16l1.2-1,.09.43c1.33,6.2,3.66,8.64,3.68,8.66ZM13,40.17l.22.49c0,.07,3,6.76,8.57,9.36a21.78,21.78,0,0,1-3.09-7.67l-1.08.93L17.49,43c0-.1-1.12-2.63.75-10.17L15,35l-.09-.38a19,19,0,0,1,1.92-11.74l-7.4,1.86a29,29,0,0,0-2.24,8.52l3-3.11L10,31c0,.07-1,6.45,1.41,11.94Z"/></g><g id="bd283826-7699-46f5-a152-3cb1b241f0fe" data-name="Right Lightning"><path class="a03c9f40-2504-4a67-a642-14582193a306" d="M337.35,23l7.84.93a27.28,27.28,0,0,1,3.35,8.58L345.47,30s1.83,6.27,0,12l-1.81-2.41S341.5,47.07,335.77,50c0,0,2-2.57,2.46-8.7l1.2.79s.78-2.59-2.17-9.91l3.57,1.86A18,18,0,0,0,337.35,23Z"/><path class="f844fb73-f0c3-4949-92ff-c2c450fad972" d="M337.35,23l7.84.93a27.28,27.28,0,0,1,3.35,8.58L345.47,30s1.83,6.27,0,12C345.43,42,346.57,31.7,337.35,23Z"/><path class="aa1730d5-df40-4e5f-8dc9-0b71bad9b4a9" d="M335.57,49.86s1.91-2.6,2.41-8.57l0-.42,1.24.81c.14-1.21-.17-4.29-2.23-9.4l-.25-.63,3.83,2a18.35,18.35,0,0,0-3.45-10.52l-.32-.46,8.5,1,.07.11a27.73,27.73,0,0,1,3.39,8.66l.12.67-3-2.44a22.78,22.78,0,0,1-.22,11.39l-.15.45-1.81-2.41c-.58,1.71-2.91,7.59-7.83,10.12l-1,.5Zm9.77-8.42c1.58-5.43-.1-11.3-.11-11.36l-.23-.77,3.16,2.56A28,28,0,0,0,345,24.15l-7.17-.85a17.92,17.92,0,0,1,3.21,10.77l0,.37-3.31-1.72c2.66,6.85,2,9.34,1.93,9.45l-.1.32-1.13-.74a20.76,20.76,0,0,1-2,7.56c4.95-3.11,6.88-9.73,6.9-9.8l.14-.49Z"/></g><g id="b9080b27-5245-46d4-80ab-c6e10368a3ee" data-name="Wizard"><g id="ef0403ec-e82b-48ea-86a4-02331dda80dc" data-name="Base"><path class="f844fb73-f0c3-4949-92ff-c2c450fad972" d="M225,17.8a1,1,0,0,1-1,.8c-.85,0-1.81,3.89-1.86,4.11l-6.3,30.21c-.05.21-.91,4.11,0,4.11s.53.8.53.8h-7.26L205.4,31l-3.68,21.89c-.06.21-.86,4.11,0,4.11s.53.8.53.8h-8.91s-.22-.8.58-.8.27-4,.22-4.11l-4.75-30.21c-.06-.11-.8-4.11-1.71-4.11a.86.86,0,0,1-.86-.8h8.76s.21.8-.59.8-.27,3.89-.21,4.11L199,49.77s4.86-27.11,4.86-27.22c-.16-.8-.85-3.95-1.6-3.95a.87.87,0,0,1-.91-.8h7.1l4.64,32,5.61-27.06c.05-.11.91-4.11,0-4.11s-.54-.8-.54-.8Z"/><path class="f844fb73-f0c3-4949-92ff-c2c450fad972" d="M235.56,55H226.8a.7.7,0,0,1,.75-.81c.86,0,.91-3.89.91-4.1V25.59c0-.21-.05-4.11-.91-4.11a.7.7,0,0,1-.75-.8h8.76a.69.69,0,0,1-.75.8c-.91,0-1,4.16-1,4.16V50s.05,4.1,1,4.1A.7.7,0,0,1,235.56,55Z"/><path class="f844fb73-f0c3-4949-92ff-c2c450fad972" d="M254.08,42.72s-1.87,4.54,0,12.23H237.85L249,22.66h-3.95c-5.18.1.43,8.32-2.83,11.36a2.55,2.55,0,0,1-2.67.48,2.09,2.09,0,0,1-1.49-1.86,1.23,1.23,0,1,1,2.45,0v.1a.75.75,0,0,0,.38-.85c-.16-2.4-2.73-8.59-2.73-11.21h16.92L243.94,53h2.77c4.11-.16,4.91-6.83,4.91-8.54C251.62,42.08,254.08,42.72,254.08,42.72Z"/><path class="f844fb73-f0c3-4949-92ff-c2c450fad972" d="M279.75,55h-8.7s-.26-.81.59-.81.27-3.89.21-4.1l-.58-3.31c-6-2-7.69,1.7-8.12,3.46-.16.81-.74,4,0,4s.59.81.59.81h-6.83a.93.93,0,0,1,.91-.81c.9,0,1.86-3.89,1.92-4.1l5.6-24.45c.06-.21.91-4.11,0-4.11s-.53-.8-.53-.8h8.91s.27.8-.58.8-.22,4-.22,4.11L276.18,44c1.28-.91-.06-2.46-.06-2.46a3,3,0,0,1,.64,5.88l.48,2.67c0,.1.75,4.1,1.66,4.1A.85.85,0,0,1,279.75,55Zm-9-10.79-2.73-15.42L264.33,45A9.42,9.42,0,0,1,270.79,44.16Z"/><path class="f844fb73-f0c3-4949-92ff-c2c450fad972" d="M304.36,55h-8.7s-.59-.81.21-.81-1.44-3.89-1.6-4.1c-2.19-3.69-3.25-5.34-5-5.34V50c0,.21.1,4.1,1,4.1A.7.7,0,0,1,291,55h-8.76a.7.7,0,0,1,.75-.81c.85,0,.91-3.78.91-4.1V25.59c0-.32-.06-4.11-.91-4.11a.7.7,0,0,1-.75-.8h9.61a12,12,0,0,1,12,12.12,12.2,12.2,0,0,1-7.74,11.42L299.66,50s2.57,4.1,3.47,4.1A1.44,1.44,0,0,1,304.36,55Zm-5.82-22.21c0-5.55-4-10.08-8.75-10.08a1.57,1.57,0,0,0-.48.05V42.83h.48C294.49,42.83,298.54,38.35,298.54,32.74Z"/><path class="f844fb73-f0c3-4949-92ff-c2c450fad972" d="M327.05,29V46.67c0,4.59-4,8.28-9,8.28H307a.7.7,0,0,1,.75-.81c.85,0,.91-3.89.91-4.1V25.59c0-.21-.06-4.11-.91-4.11a.7.7,0,0,1-.75-.8h11.05C323,20.68,327.05,24.36,327.05,29Zm-5.34,0a6.37,6.37,0,0,0-6.3-6.4,5.16,5.16,0,0,0-1.33.16V52.92a5.64,5.64,0,0,0,1.33.16,6.37,6.37,0,0,0,6.3-6.41Z"/></g><g id="a90e9f58-c48e-4bc6-ad5a-e5f1ba98e79a" data-name="Lower Color"><path class="a03c9f40-2504-4a67-a642-14582193a306" d="M321.71,42.83v3.84a6.37,6.37,0,0,1-6.3,6.41,5.64,5.64,0,0,1-1.33-.16V42.83h-5.39V50c0,.21-.06,4.1-.91,4.1A.7.7,0,0,0,307,55h11.05c5,0,9-3.69,9-8.28V42.83Z"/><path class="a03c9f40-2504-4a67-a642-14582193a306" d="M303.13,54.14c-.9,0-3.47-4.1-3.47-4.1l-3.57-5.82a12,12,0,0,0,2.57-1.39H283.92V50c0,.32-.06,4.1-.91,4.1a.7.7,0,0,0-.75.81H291a.7.7,0,0,0-.75-.81c-.85,0-1-3.89-1-4.1V44.7c1.71,0,2.77,1.65,5,5.34.16.21,2.46,4.1,1.6,4.1s-.21.81-.21.81h8.7A1.44,1.44,0,0,0,303.13,54.14Z"/><path class="a03c9f40-2504-4a67-a642-14582193a306" d="M278.9,54.14c-.91,0-1.66-4-1.66-4.1l-.48-2.67a3,3,0,0,0,1.82-4.54h-1.86a1.17,1.17,0,0,1-.54,1.12l-.2-1.12h-5.43l.24,1.33a9.42,9.42,0,0,0-6.46.86l.5-2.19h-3.44L259.74,50c-.06.21-1,4.1-1.92,4.1a.93.93,0,0,0-.91.81h6.83s.27-.81-.59-.81-.16-3.14,0-4c.43-1.76,2.14-5.49,8.12-3.46l.58,3.31c.06.21.64,4.1-.21,4.1s-.59.81-.59.81h8.7A.85.85,0,0,0,278.9,54.14Z"/><path class="a03c9f40-2504-4a67-a642-14582193a306" d="M254,42.83h-1.56a1.57,1.57,0,0,0-.86,1.6c0,1.71-.8,8.38-4.91,8.54h-2.77l3.5-10.14H242L237.85,55h16.23C252.37,47.91,253.79,43.52,254,42.83Z"/><path class="a03c9f40-2504-4a67-a642-14582193a306" d="M234.81,54.14c-.91,0-1-4.1-1-4.1V42.83h-5.39V50c0,.21-.05,4.1-.91,4.1a.7.7,0,0,0-.75.81h8.76A.7.7,0,0,0,234.81,54.14Z"/><path class="a03c9f40-2504-4a67-a642-14582193a306" d="M201.72,57c-.86,0-.06-3.9,0-4.11l1.69-10.09h-3.17c-.72,4-1.25,6.94-1.25,6.94l-1.08-6.94h-5.36l1.59,10.09c.05.1.69,4.11-.22,4.11s-.58.8-.58.8h8.91S202.52,57,201.72,57Z"/><path class="a03c9f40-2504-4a67-a642-14582193a306" d="M215.86,57c-.91,0-.05-3.9,0-4.11L218,42.83h-3.44l-1.44,6.94-1-6.94h-5l2.09,15h7.26S216.66,57,215.86,57Z"/></g><g id="e73f4fd9-70fb-4d79-b5d8-aa6bdb7a2481" data-name="Half Color"><path class="a03c9f40-2504-4a67-a642-14582193a306" d="M215.86,57c-.91,0-.05-3.9,0-4.11L219.18,37h-3.45l-2.65,12.77L211.23,37h-5l2.9,20.83h7.26S216.66,57,215.86,57Z"/><path class="a03c9f40-2504-4a67-a642-14582193a306" d="M201.72,57c-.86,0-.06-3.9,0-4.11L204.39,37h-3.11C200.11,43.51,199,49.77,199,49.77L197,37h-5.37l2.51,15.92c.05.1.69,4.11-.22,4.11s-.58.8-.58.8h8.91S202.52,57,201.72,57Z"/><path class="a03c9f40-2504-4a67-a642-14582193a306" d="M234.81,54.14c-.91,0-1-4.1-1-4.1V37h-5.39V50c0,.21-.05,4.1-.91,4.1a.7.7,0,0,0-.75.81h8.76A.7.7,0,0,0,234.81,54.14Z"/><path class="a03c9f40-2504-4a67-a642-14582193a306" d="M251.62,44.43c0,1.71-.8,8.38-4.91,8.54h-2.77l5.52-16h-5.41l-6.2,18h16.23c-1.87-7.69,0-12.23,0-12.23S251.62,42.08,251.62,44.43Z"/><path class="a03c9f40-2504-4a67-a642-14582193a306" d="M321.71,37v9.67a6.37,6.37,0,0,1-6.3,6.41,5.64,5.64,0,0,1-1.33-.16V37h-5.39V50c0,.21-.06,4.1-.91,4.1A.7.7,0,0,0,307,55h11.05c5,0,9-3.69,9-8.28V37Z"/><path class="a03c9f40-2504-4a67-a642-14582193a306" d="M278.9,54.14c-.91,0-1.66-4-1.66-4.1l-.48-2.67a3,3,0,0,0-.64-5.87s1.34,1.54.06,2.45l-1.24-7h-5.42l1.27,7.16a9.42,9.42,0,0,0-6.46.86l1.84-8h-3.44l-3,13c-.06.21-1,4.1-1.92,4.1a.93.93,0,0,0-.91.81h6.83s.27-.81-.59-.81-.16-3.14,0-4c.43-1.76,2.14-5.49,8.12-3.46l.58,3.31c.06.21.64,4.1-.21,4.1s-.59.81-.59.81h8.7A.85.85,0,0,0,278.9,54.14Z"/><path class="a03c9f40-2504-4a67-a642-14582193a306" d="M303.13,54.14c-.9,0-3.47-4.1-3.47-4.1l-3.57-5.82a12.17,12.17,0,0,0,7-7.22H297.7a8.86,8.86,0,0,1-7.91,5.83h-.48V37h-5.39V50c0,.32-.06,4.1-.91,4.1a.7.7,0,0,0-.75.81H291a.7.7,0,0,0-.75-.81c-.85,0-1-3.89-1-4.1V44.7c1.71,0,2.77,1.65,5,5.34.16.21,2.46,4.1,1.6,4.1s-.21.81-.21.81h8.7A1.44,1.44,0,0,0,303.13,54.14Z"/></g><g id="b23a331b-4b40-4ca2-bf4d-49e129e293ba" data-name="Outline"><path class="a6064dca-2dab-4759-8a65-9277f8312808" d="M225,17.8a1,1,0,0,1-1,.8c-.85,0-1.81,3.89-1.86,4.11l-6.3,30.21c-.05.21-.91,4.11,0,4.11s.53.8.53.8h-7.26L205.4,31l-3.68,21.89c-.06.21-.86,4.11,0,4.11s.53.8.53.8h-8.91s-.22-.8.58-.8.27-4,.22-4.11l-4.75-30.21c-.06-.11-.8-4.11-1.71-4.11a.86.86,0,0,1-.86-.8h8.76s.21.8-.59.8-.27,3.89-.21,4.11L199,49.77s4.86-27.11,4.86-27.22c-.16-.8-.85-3.95-1.6-3.95a.87.87,0,0,1-.91-.8h7.1l4.64,32,5.61-27.06c.05-.11.91-4.11,0-4.11s-.54-.8-.54-.8Z"/><path class="a6064dca-2dab-4759-8a65-9277f8312808" d="M235.56,55H226.8a.7.7,0,0,1,.75-.81c.86,0,.91-3.89.91-4.1V25.59c0-.21-.05-4.11-.91-4.11a.7.7,0,0,1-.75-.8h8.76a.69.69,0,0,1-.75.8c-.91,0-1,4.16-1,4.16V50s.05,4.1,1,4.1A.7.7,0,0,1,235.56,55Z"/><path class="a6064dca-2dab-4759-8a65-9277f8312808" d="M254.08,42.72s-1.87,4.54,0,12.23H237.85L249,22.66h-3.95c-5.18.1.43,8.32-2.83,11.36a2.55,2.55,0,0,1-2.67.48,2.09,2.09,0,0,1-1.49-1.86,1.23,1.23,0,1,1,2.45,0v.1a.75.75,0,0,0,.38-.85c-.16-2.4-2.73-8.59-2.73-11.21h16.92L243.94,53h2.77c4.11-.16,4.91-6.83,4.91-8.54C251.62,42.08,254.08,42.72,254.08,42.72Z"/><path class="a6064dca-2dab-4759-8a65-9277f8312808" d="M279.75,55h-8.7s-.26-.81.59-.81.27-3.89.21-4.1l-.58-3.31c-6-2-7.69,1.7-8.12,3.46-.16.81-.74,4,0,4s.59.81.59.81h-6.83a.93.93,0,0,1,.91-.81c.9,0,1.86-3.89,1.92-4.1l5.6-24.45c.06-.21.91-4.11,0-4.11s-.53-.8-.53-.8h8.91s.27.8-.58.8-.22,4-.22,4.11L276.18,44c1.28-.91-.06-2.46-.06-2.46a3,3,0,0,1,.64,5.88l.48,2.67c0,.1.75,4.1,1.66,4.1A.85.85,0,0,1,279.75,55Zm-9-10.79-2.73-15.42L264.33,45A9.42,9.42,0,0,1,270.79,44.16Z"/><path class="a6064dca-2dab-4759-8a65-9277f8312808" d="M304.36,55h-8.7s-.59-.81.21-.81-1.44-3.89-1.6-4.1c-2.19-3.69-3.25-5.34-5-5.34V50c0,.21.1,4.1,1,4.1A.7.7,0,0,1,291,55h-8.76a.7.7,0,0,1,.75-.81c.85,0,.91-3.78.91-4.1V25.59c0-.32-.06-4.11-.91-4.11a.7.7,0,0,1-.75-.8h9.61a12,12,0,0,1,12,12.12,12.2,12.2,0,0,1-7.74,11.42L299.66,50s2.57,4.1,3.47,4.1A1.44,1.44,0,0,1,304.36,55Zm-5.82-22.21c0-5.55-4-10.08-8.75-10.08a1.57,1.57,0,0,0-.48.05V42.83h.48C294.49,42.83,298.54,38.35,298.54,32.74Z"/><path class="a6064dca-2dab-4759-8a65-9277f8312808" d="M327.05,29V46.67c0,4.59-4,8.28-9,8.28H307a.7.7,0,0,1,.75-.81c.85,0,.91-3.89.91-4.1V25.59c0-.21-.06-4.11-.91-4.11a.7.7,0,0,1-.75-.8h11.05C323,20.68,327.05,24.36,327.05,29Zm-5.34,0a6.37,6.37,0,0,0-6.3-6.4,5.16,5.16,0,0,0-1.33.16V52.92a5.64,5.64,0,0,0,1.33.16,6.37,6.37,0,0,0,6.3-6.41Z"/></g></g><g id="e074ed29-0353-4aaa-ae0e-aab82fd2f34c" data-name="Release"><g id="fd72afe4-6ee8-45b1-a2b5-fe58611cbf33" data-name="Base"><path class="f844fb73-f0c3-4949-92ff-c2c450fad972" d="M56.7,62.9a2,2,0,0,1-1.06,1.76,6.5,6.5,0,0,1-7.8-2c-3.09-4-8.91-17-12-17.88v8.12c0,.32.11,4.11,1,4.11a.69.69,0,0,1,.75.8H28.79a.69.69,0,0,1,.75-.8c.85,0,.9-3.79.9-4.11V22.71c0-.32-.05-4.11-.9-4.11a.69.69,0,0,1-.75-.8h7C44.37,17.8,51,23,51,31.78c0,7.31-4.64,12-10.3,13C47.47,47.37,50.25,63,54.19,63V62.9a1.25,1.25,0,0,1,1.23-1.28A1.29,1.29,0,0,1,56.7,62.9ZM45.87,31.62c0-7.95-5.39-11.53-10-11.63V42.83h.49C41,42.83,45.87,38.35,45.87,31.62Z"/><path class="f844fb73-f0c3-4949-92ff-c2c450fad972" d="M70.74,54.94H53.45a.69.69,0,0,1,.75-.8c.85,0,.9-3.79.9-4.11V25.59c0-.32-.05-4.11-.9-4.11a.69.69,0,0,1-.75-.8H70.37c0,2.62-2.51,8.81-2.67,11.21a.81.81,0,0,0,.32.85v-.1a1.26,1.26,0,1,1,2.51,0A2.13,2.13,0,0,1,69,34.5,2.52,2.52,0,0,1,66.37,34c-3.31-3,2.34-11.26-2.83-11.37h-3V41.87c.54,0,4.11-.11,4.11-1a.68.68,0,0,1,.8-.7v5.34a.67.67,0,0,1-.8-.69c0-.86-3.57-1-4.11-1V53h2.89c4.11-.16,4.91-6.83,4.91-8.54,0-2.35,2.45-1.71,2.45-1.71S68.87,47.26,70.74,54.94Z"/><path class="f844fb73-f0c3-4949-92ff-c2c450fad972" d="M90.71,54.94H73.41a.7.7,0,0,1,.75-.8c.91,0,.91-4.11.91-4.11V25.64s0-4.16-.91-4.16a.7.7,0,0,1-.75-.8h8.76a.73.73,0,0,1-.75.8c-.8,0-.91,3.42-1,4.06V53h2.88c4.11-.16,4.91-6.83,4.91-8.54,0-2.35,2.46-1.71,2.46-1.71S88.84,47.26,90.71,54.94Z"/><path class="f844fb73-f0c3-4949-92ff-c2c450fad972" d="M109.76,54.94H92.47a.69.69,0,0,1,.75-.8c.85,0,.9-3.79.9-4.11V25.59c0-.32-.05-4.11-.9-4.11a.69.69,0,0,1-.75-.8h16.92c0,2.62-2.51,8.81-2.67,11.21a.81.81,0,0,0,.32.85v-.1a1.26,1.26,0,1,1,2.51,0,2.13,2.13,0,0,1-1.5,1.86,2.52,2.52,0,0,1-2.66-.48c-3.31-3,2.34-11.26-2.83-11.37h-3V41.87c.54,0,4.11-.11,4.11-1a.68.68,0,0,1,.8-.7v5.34a.67.67,0,0,1-.8-.69c0-.86-3.57-1-4.11-1V53h2.89c4.11-.16,4.91-6.83,4.91-8.54,0-2.35,2.45-1.71,2.45-1.71S107.89,47.26,109.76,54.94Z"/><path class="f844fb73-f0c3-4949-92ff-c2c450fad972" d="M134.58,54.94h-8.7s-.26-.8.59-.8.27-3.89.21-4.11l-.58-3.3c-6-2-7.69,1.7-8.12,3.47-.16.8-.74,3.94,0,3.94a.57.57,0,0,1,.59.8h-6.83a.91.91,0,0,1,.91-.8c.9,0,1.86-3.89,1.92-4.11l5.6-24.44c0-.21.91-4.11,0-4.11s-.53-.8-.53-.8h8.91a.57.57,0,0,1-.59.8c-.85,0-.21,4-.21,4.11L131,44c1.28-.91-.06-2.45-.06-2.45a3,3,0,0,1,.64,5.87l.48,2.66c0,.11.75,4.11,1.66,4.11A.84.84,0,0,1,134.58,54.94Zm-9-10.78-2.73-15.42L119.16,45A9.42,9.42,0,0,1,125.62,44.16Z"/><path class="f844fb73-f0c3-4949-92ff-c2c450fad972" d="M154,46.3c0,4.64-2.72,8.81-9.44,8.81a7.64,7.64,0,0,1-7.8-7.9c0-6.52,6.51-5.71,6.51-2.46-2.72,0-3,7.85,1.29,7.85,2.13,0,4.05-2.89,4.05-6.3,0-9.66-11.37-8.91-11.37-17.77,0-5.5,3.63-7.74,7.47-8.33a23.34,23.34,0,0,1,8.12.48c0,2.62-2.51,8.81-2.67,11.21a.76.76,0,0,0,.37.85c0-.05,0-.05,0-.1a1.3,1.3,0,0,1,1.28-1.29A1.26,1.26,0,0,1,153,32.64a2.07,2.07,0,0,1-1.5,1.86,2.56,2.56,0,0,1-2.67-.48c-3.3-3,3-11.37-3.14-11.37-2.46,0-3.1,2.41-3.1,5.88C142.59,35,154,36.16,154,46.3Z"/><path class="f844fb73-f0c3-4949-92ff-c2c450fad972" d="M173.71,54.94H156.42a.69.69,0,0,1,.74-.8c.86,0,.91-3.79.91-4.11V25.59c0-.32,0-4.11-.91-4.11a.69.69,0,0,1-.74-.8h16.92c0,2.62-2.51,8.81-2.67,11.21a.78.78,0,0,0,.32.85v-.1a1.26,1.26,0,1,1,2.51,0A2.13,2.13,0,0,1,172,34.5a2.54,2.54,0,0,1-2.67-.48c-3.31-3,2.35-11.26-2.83-11.37h-3V41.87c.54,0,4.11-.11,4.11-1a.68.68,0,0,1,.8-.7v5.34a.67.67,0,0,1-.8-.69c0-.86-3.57-1-4.11-1V53h2.88c4.11-.16,4.91-6.83,4.91-8.54,0-2.35,2.46-1.71,2.46-1.71S171.84,47.26,173.71,54.94Z"/></g><g id="b5bf00f3-ba4b-4c43-a86b-2c37e6c0dcb3" data-name="Lower Color"><path class="a03c9f40-2504-4a67-a642-14582193a306" d="M173.66,42.85h-1.6a1.59,1.59,0,0,0-.81,1.58c0,1.71-.8,8.38-4.91,8.54h-2.88V43.9c.54,0,4.11.1,4.11,1a.67.67,0,0,0,.8.69v-2.7h-10.3V50c0,.32,0,4.11-.91,4.11a.69.69,0,0,0-.74.8h17.29C172,48,173.39,43.59,173.66,42.85Z"/><path class="a03c9f40-2504-4a67-a642-14582193a306" d="M148,42.85a9.45,9.45,0,0,1,.61,3.45c0,3.41-1.92,6.3-4.05,6.3-4.27,0-4-7.85-1.29-7.85a2.29,2.29,0,0,0-1-1.9h-3.63c-1,.69-1.87,2.06-1.87,4.36a7.64,7.64,0,0,0,7.8,7.9c6.72,0,9.44-4.17,9.44-8.81a11.44,11.44,0,0,0-.5-3.45Z"/><path class="a03c9f40-2504-4a67-a642-14582193a306" d="M133.73,54.14c-.91,0-1.66-4-1.66-4.11l-.48-2.66a3,3,0,0,0,1.83-4.52h-1.87A1.19,1.19,0,0,1,131,44l-.2-1.1h-5.43l.24,1.31a9.42,9.42,0,0,0-6.46.86l.5-2.17h-3.45L114.57,50c-.06.22-1,4.11-1.92,4.11a.91.91,0,0,0-.91.8h6.83a.57.57,0,0,0-.59-.8c-.74,0-.16-3.14,0-3.94.43-1.77,2.14-5.5,8.12-3.47l.58,3.3c.06.22.64,4.11-.21,4.11s-.59.8-.59.8h8.7A.84.84,0,0,0,133.73,54.14Z"/><path class="a03c9f40-2504-4a67-a642-14582193a306" d="M109.71,42.85h-1.6a1.59,1.59,0,0,0-.8,1.58c0,1.71-.8,8.38-4.91,8.54H99.51V43.9c.54,0,4.11.1,4.11,1a.67.67,0,0,0,.8.69v-2.7H94.12V50c0,.32-.05,4.11-.9,4.11a.69.69,0,0,0-.75.8h17.29C108.06,48,109.45,43.59,109.71,42.85Z"/><path class="a03c9f40-2504-4a67-a642-14582193a306" d="M90.66,42.85h-1.6a1.58,1.58,0,0,0-.81,1.58c0,1.71-.8,8.38-4.91,8.54H80.46V42.85H75.07V50s0,4.11-.91,4.11a.7.7,0,0,0-.75.8h17.3C89,48,90.39,43.59,90.66,42.85Z"/><path class="a03c9f40-2504-4a67-a642-14582193a306" d="M70.7,42.85H69.09a1.59,1.59,0,0,0-.8,1.58c0,1.71-.8,8.38-4.91,8.54H60.49V43.9c.54,0,4.11.1,4.11,1a.67.67,0,0,0,.8.69v-2.7H55.1V50c0,.32-.05,4.11-.9,4.11a.69.69,0,0,0-.75.8H70.74C69,48,70.43,43.59,70.7,42.85Z"/><path class="a03c9f40-2504-4a67-a642-14582193a306" d="M55.42,61.62a1.25,1.25,0,0,0-1.23,1.28V63c-3.94,0-6.72-15.58-13.5-18.15a12.47,12.47,0,0,0,4.83-1.95H30.44V52.92c0,.32-.05,4.11-.9,4.11a.69.69,0,0,0-.75.8h8.75a.69.69,0,0,0-.75-.8c-.85,0-1-3.79-1-4.11V44.8c3.1.86,8.92,13.93,12,17.88a6.5,6.5,0,0,0,7.8,2A2,2,0,0,0,56.7,62.9,1.29,1.29,0,0,0,55.42,61.62Z"/></g><g id="ad5d44a4-4db6-41d7-aac0-ffaa84aaabd4" data-name="Half Color"><path class="a03c9f40-2504-4a67-a642-14582193a306" d="M171.25,44.43c0,1.71-.8,8.38-4.91,8.54h-2.88V43.9c.54,0,4.11.1,4.11,1a.67.67,0,0,0,.8.69V40.21a.68.68,0,0,0-.8.7c0,.85-3.57,1-4.11,1v-4.5h-5.39V50c0,.32,0,4.11-.91,4.11a.69.69,0,0,0-.74.8h17.29c-1.87-7.68,0-12.22,0-12.22S171.25,42.08,171.25,44.43Z"/><path class="a03c9f40-2504-4a67-a642-14582193a306" d="M149.82,37.37h-6.54c2.72,2.06,5.34,4.29,5.34,8.93,0,3.41-1.92,6.3-4.05,6.3-4.27,0-4-7.85-1.29-7.85,0-3.25-6.51-4.06-6.51,2.46a7.64,7.64,0,0,0,7.8,7.9c6.72,0,9.44-4.17,9.44-8.81A11.65,11.65,0,0,0,149.82,37.37Z"/><path class="a03c9f40-2504-4a67-a642-14582193a306" d="M133.73,54.14c-.91,0-1.66-4-1.66-4.11l-.48-2.66A3,3,0,0,0,131,41.5S132.29,43,131,44l-1.17-6.58h-5.42l1.2,6.79a9.42,9.42,0,0,0-6.46.86l1.75-7.65h-3.44L114.57,50c-.06.22-1,4.11-1.92,4.11a.91.91,0,0,0-.91.8h6.83a.57.57,0,0,0-.59-.8c-.74,0-.16-3.14,0-3.94.43-1.77,2.14-5.5,8.12-3.47l.58,3.3c.06.22.64,4.11-.21,4.11s-.59.8-.59.8h8.7A.84.84,0,0,0,133.73,54.14Z"/><path class="a03c9f40-2504-4a67-a642-14582193a306" d="M107.31,44.43c0,1.71-.8,8.38-4.91,8.54H99.51V43.9c.54,0,4.11.1,4.11,1a.67.67,0,0,0,.8.69V40.21a.68.68,0,0,0-.8.7c0,.85-3.57,1-4.11,1v-4.5H94.12V50c0,.32-.05,4.11-.9,4.11a.69.69,0,0,0-.75.8h17.29c-1.87-7.68,0-12.22,0-12.22S107.31,42.08,107.31,44.43Z"/><path class="a03c9f40-2504-4a67-a642-14582193a306" d="M88.25,44.43c0,1.71-.8,8.38-4.91,8.54H80.46V37.37H75.07V50s0,4.11-.91,4.11a.7.7,0,0,0-.75.8h17.3c-1.87-7.68,0-12.22,0-12.22S88.25,42.08,88.25,44.43Z"/><path class="a03c9f40-2504-4a67-a642-14582193a306" d="M68.29,44.43c0,1.71-.8,8.38-4.91,8.54H60.49V43.9c.54,0,4.11.1,4.11,1a.67.67,0,0,0,.8.69V40.21a.68.68,0,0,0-.8.7c0,.85-3.57,1-4.11,1v-4.5H55.1V50c0,.32-.05,4.11-.9,4.11a.69.69,0,0,0-.75.8H70.74c-1.87-7.68,0-12.22,0-12.22S68.29,42.08,68.29,44.43Z"/><path class="a03c9f40-2504-4a67-a642-14582193a306" d="M55.42,61.62a1.25,1.25,0,0,0-1.23,1.28V63c-3.94,0-6.72-15.58-13.5-18.15a12.16,12.16,0,0,0,9.24-7.43H44.5a9.58,9.58,0,0,1-8.18,5.46h-.49V37.37H30.44V52.92c0,.32-.05,4.11-.9,4.11a.69.69,0,0,0-.75.8h8.75a.69.69,0,0,0-.75-.8c-.85,0-1-3.79-1-4.11V44.8c3.1.86,8.92,13.93,12,17.88a6.5,6.5,0,0,0,7.8,2A2,2,0,0,0,56.7,62.9,1.29,1.29,0,0,0,55.42,61.62Z"/></g><g id="ef7d795d-7404-4ed6-827e-4f99a8d0776a" data-name="Outline"><path class="a6064dca-2dab-4759-8a65-9277f8312808" d="M56.7,62.9a2,2,0,0,1-1.06,1.76,6.5,6.5,0,0,1-7.8-2c-3.09-4-8.91-17-12-17.88v8.12c0,.32.11,4.11,1,4.11a.69.69,0,0,1,.75.8H28.79a.69.69,0,0,1,.75-.8c.85,0,.9-3.79.9-4.11V22.71c0-.32-.05-4.11-.9-4.11a.69.69,0,0,1-.75-.8h7C44.37,17.8,51,23,51,31.78c0,7.31-4.64,12-10.3,13C47.47,47.37,50.25,63,54.19,63V62.9a1.25,1.25,0,0,1,1.23-1.28A1.29,1.29,0,0,1,56.7,62.9ZM45.87,31.62c0-7.95-5.39-11.53-10-11.63V42.83h.49C41,42.83,45.87,38.35,45.87,31.62Z"/><path class="a6064dca-2dab-4759-8a65-9277f8312808" d="M70.74,54.94H53.45a.69.69,0,0,1,.75-.8c.85,0,.9-3.79.9-4.11V25.59c0-.32-.05-4.11-.9-4.11a.69.69,0,0,1-.75-.8H70.37c0,2.62-2.51,8.81-2.67,11.21a.81.81,0,0,0,.32.85v-.1a1.26,1.26,0,1,1,2.51,0A2.13,2.13,0,0,1,69,34.5,2.52,2.52,0,0,1,66.37,34c-3.31-3,2.34-11.26-2.83-11.37h-3V41.87c.54,0,4.11-.11,4.11-1a.68.68,0,0,1,.8-.7v5.34a.67.67,0,0,1-.8-.69c0-.86-3.57-1-4.11-1V53h2.89c4.11-.16,4.91-6.83,4.91-8.54,0-2.35,2.45-1.71,2.45-1.71S68.87,47.26,70.74,54.94Z"/><path class="a6064dca-2dab-4759-8a65-9277f8312808" d="M90.71,54.94H73.41a.7.7,0,0,1,.75-.8c.91,0,.91-4.11.91-4.11V25.64s0-4.16-.91-4.16a.7.7,0,0,1-.75-.8h8.76a.73.73,0,0,1-.75.8c-.8,0-.91,3.42-1,4.06V53h2.88c4.11-.16,4.91-6.83,4.91-8.54,0-2.35,2.46-1.71,2.46-1.71S88.84,47.26,90.71,54.94Z"/><path class="a6064dca-2dab-4759-8a65-9277f8312808" d="M109.76,54.94H92.47a.69.69,0,0,1,.75-.8c.85,0,.9-3.79.9-4.11V25.59c0-.32-.05-4.11-.9-4.11a.69.69,0,0,1-.75-.8h16.92c0,2.62-2.51,8.81-2.67,11.21a.81.81,0,0,0,.32.85v-.1a1.26,1.26,0,1,1,2.51,0,2.13,2.13,0,0,1-1.5,1.86,2.52,2.52,0,0,1-2.66-.48c-3.31-3,2.34-11.26-2.83-11.37h-3V41.87c.54,0,4.11-.11,4.11-1a.68.68,0,0,1,.8-.7v5.34a.67.67,0,0,1-.8-.69c0-.86-3.57-1-4.11-1V53h2.89c4.11-.16,4.91-6.83,4.91-8.54,0-2.35,2.45-1.71,2.45-1.71S107.89,47.26,109.76,54.94Z"/><path class="a6064dca-2dab-4759-8a65-9277f8312808" d="M134.58,54.94h-8.7s-.26-.8.59-.8.27-3.89.21-4.11l-.58-3.3c-6-2-7.69,1.7-8.12,3.47-.16.8-.74,3.94,0,3.94a.57.57,0,0,1,.59.8h-6.83a.91.91,0,0,1,.91-.8c.9,0,1.86-3.89,1.92-4.11l5.6-24.44c0-.21.91-4.11,0-4.11s-.53-.8-.53-.8h8.91a.57.57,0,0,1-.59.8c-.85,0-.21,4-.21,4.11L131,44c1.28-.91-.06-2.45-.06-2.45a3,3,0,0,1,.64,5.87l.48,2.66c0,.11.75,4.11,1.66,4.11A.84.84,0,0,1,134.58,54.94Zm-9-10.78-2.73-15.42L119.16,45A9.42,9.42,0,0,1,125.62,44.16Z"/><path class="a6064dca-2dab-4759-8a65-9277f8312808" d="M154,46.3c0,4.64-2.72,8.81-9.44,8.81a7.64,7.64,0,0,1-7.8-7.9c0-6.52,6.51-5.71,6.51-2.46-2.72,0-3,7.85,1.29,7.85,2.13,0,4.05-2.89,4.05-6.3,0-9.66-11.37-8.91-11.37-17.77,0-5.5,3.63-7.74,7.47-8.33a23.34,23.34,0,0,1,8.12.48c0,2.62-2.51,8.81-2.67,11.21a.76.76,0,0,0,.37.85c0-.05,0-.05,0-.1a1.3,1.3,0,0,1,1.28-1.29A1.26,1.26,0,0,1,153,32.64a2.07,2.07,0,0,1-1.5,1.86,2.56,2.56,0,0,1-2.67-.48c-3.3-3,3-11.37-3.14-11.37-2.46,0-3.1,2.41-3.1,5.88C142.59,35,154,36.16,154,46.3Z"/><path class="a6064dca-2dab-4759-8a65-9277f8312808" d="M173.71,54.94H156.42a.69.69,0,0,1,.74-.8c.86,0,.91-3.79.91-4.11V25.59c0-.32,0-4.11-.91-4.11a.69.69,0,0,1-.74-.8h16.92c0,2.62-2.51,8.81-2.67,11.21a.78.78,0,0,0,.32.85v-.1a1.26,1.26,0,1,1,2.51,0A2.13,2.13,0,0,1,172,34.5a2.54,2.54,0,0,1-2.67-.48c-3.31-3,2.35-11.26-2.83-11.37h-3V41.87c.54,0,4.11-.11,4.11-1a.68.68,0,0,1,.8-.7v5.34a.67.67,0,0,1-.8-.69c0-.86-3.57-1-4.11-1V53h2.88c4.11-.16,4.91-6.83,4.91-8.54,0-2.35,2.46-1.71,2.46-1.71S171.84,47.26,173.71,54.94Z"/></g></g></g></svg>